<svg version="1.1" xmlns="http://www.w3.org/2000/svg" viewBox="0 0 4993.140348220125 3902.5" width="4993.140348220125" height="3902.5">
  <!-- svg-source:excalidraw -->
  
  <defs>
    <style class="style-fonts">
      
    </style>
    
  </defs>
  <g stroke-linecap="round" transform="translate(10 2065.100734613466) rotate(0 205.01951071166295 205.71471799600283)"><path d="M410.04 205.71 C410.04 210.39, 409.88 215.08, 409.56 219.75 C409.24 224.42, 408.76 229.09, 408.13 233.73 C407.49 238.36, 406.7 242.99, 405.75 247.57 C404.8 252.15, 403.69 256.71, 402.44 261.22 C401.18 265.72, 399.76 270.2, 398.2 274.6 C396.64 279.01, 394.92 283.38, 393.07 287.67 C391.21 291.96, 389.2 296.2, 387.05 300.36 C384.91 304.51, 382.62 308.6, 380.19 312.6 C377.77 316.6, 375.2 320.52, 372.51 324.35 C369.82 328.17, 367 331.91, 364.06 335.54 C361.11 339.17, 358.04 342.71, 354.86 346.13 C351.67 349.55, 348.36 352.86, 344.96 356.06 C341.55 359.25, 338.02 362.34, 334.4 365.29 C330.79 368.24, 327.06 371.08, 323.25 373.78 C319.44 376.48, 315.53 379.05, 311.54 381.48 C307.56 383.91, 303.48 386.21, 299.34 388.37 C295.2 390.52, 290.98 392.53, 286.7 394.4 C282.42 396.26, 278.07 397.98, 273.68 399.55 C269.28 401.12, 264.82 402.54, 260.33 403.8 C255.84 405.06, 251.3 406.17, 246.73 407.13 C242.17 408.08, 237.56 408.88, 232.94 409.51 C228.32 410.15, 223.66 410.63, 219.01 410.95 C214.36 411.27, 209.68 411.43, 205.02 411.43 C200.36 411.43, 195.68 411.27, 191.03 410.95 C186.38 410.63, 181.72 410.15, 177.1 409.51 C172.48 408.88, 167.87 408.08, 163.31 407.13 C158.74 406.17, 154.2 405.06, 149.71 403.8 C145.22 402.54, 140.76 401.12, 136.36 399.55 C131.97 397.98, 127.62 396.26, 123.34 394.4 C119.06 392.53, 114.84 390.52, 110.7 388.37 C106.56 386.21, 102.48 383.91, 98.49 381.48 C94.51 379.05, 90.6 376.48, 86.79 373.78 C82.98 371.08, 79.25 368.24, 75.63 365.29 C72.02 362.34, 68.49 359.25, 65.08 356.06 C61.67 352.86, 58.37 349.55, 55.18 346.13 C52 342.71, 48.93 339.17, 45.98 335.54 C43.04 331.91, 40.21 328.17, 37.52 324.35 C34.84 320.52, 32.27 316.6, 29.85 312.6 C27.42 308.6, 25.13 304.51, 22.99 300.36 C20.84 296.2, 18.83 291.96, 16.97 287.67 C15.12 283.38, 13.4 279.01, 11.84 274.6 C10.28 270.2, 8.86 265.72, 7.6 261.22 C6.34 256.71, 5.24 252.15, 4.29 247.57 C3.34 242.99, 2.54 238.36, 1.91 233.73 C1.27 229.09, 0.8 224.42, 0.48 219.75 C0.16 215.08, 0 210.39, 0 205.71 C0 201.04, 0.16 196.34, 0.48 191.68 C0.8 187.01, 1.27 182.34, 1.91 177.7 C2.54 173.07, 3.34 168.44, 4.29 163.86 C5.24 159.28, 6.34 154.72, 7.6 150.21 C8.86 145.71, 10.28 141.23, 11.84 136.83 C13.4 132.42, 15.12 128.05, 16.97 123.76 C18.83 119.47, 20.84 115.23, 22.99 111.07 C25.13 106.92, 27.42 102.83, 29.85 98.83 C32.27 94.83, 34.84 90.91, 37.52 87.08 C40.21 83.26, 43.04 79.52, 45.98 75.89 C48.93 72.26, 52 68.72, 55.18 65.3 C58.37 61.88, 61.67 58.57, 65.08 55.37 C68.49 52.18, 72.02 49.09, 75.63 46.14 C79.25 43.19, 82.98 40.35, 86.79 37.65 C90.6 34.95, 94.51 32.38, 98.49 29.95 C102.48 27.52, 106.56 25.22, 110.7 23.06 C114.84 20.91, 119.06 18.9, 123.34 17.03 C127.62 15.17, 131.97 13.44, 136.36 11.88 C140.76 10.31, 145.22 8.89, 149.71 7.63 C154.2 6.37, 158.74 5.25, 163.31 4.3 C167.87 3.35, 172.48 2.55, 177.1 1.92 C181.72 1.28, 186.38 0.8, 191.03 0.48 C195.68 0.16, 200.36 0, 205.02 0 C209.68 0, 214.36 0.16, 219.01 0.48 C223.66 0.8, 228.32 1.28, 232.94 1.92 C237.56 2.55, 242.17 3.35, 246.73 4.3 C251.3 5.25, 255.84 6.37, 260.33 7.63 C264.82 8.89, 269.28 10.31, 273.68 11.88 C278.07 13.44, 282.42 15.17, 286.7 17.03 C290.98 18.9, 295.2 20.91, 299.34 23.06 C303.48 25.22, 307.56 27.52, 311.54 29.95 C315.53 32.38, 319.44 34.95, 323.25 37.65 C327.06 40.35, 330.79 43.19, 334.4 46.14 C338.02 49.09, 341.55 52.18, 344.96 55.37 C348.36 58.57, 351.67 61.88, 354.86 65.3 C358.04 68.72, 361.11 72.26, 364.06 75.89 C367 79.52, 369.82 83.26, 372.51 87.08 C375.2 90.91, 377.77 94.83, 380.19 98.83 C382.62 102.83, 384.91 106.92, 387.05 111.07 C389.2 115.23, 391.21 119.47, 393.07 123.76 C394.92 128.05, 396.64 132.42, 398.2 136.83 C399.76 141.23, 401.18 145.71, 402.44 150.21 C403.69 154.72, 404.8 159.28, 405.75 163.86 C406.7 168.44, 407.49 173.07, 408.13 177.7 C408.76 182.34, 409.24 187.01, 409.56 191.68 C409.88 196.34, 410.04 201.04, 410.04 205.71" stroke="none" stroke-width="0" fill="#ffffff"></path><path d="M410.04 205.71 C410.04 210.39, 409.88 215.08, 409.56 219.75 C409.24 224.42, 408.76 229.09, 408.13 233.73 C407.49 238.36, 406.7 242.99, 405.75 247.57 C404.8 252.15, 403.69 256.71, 402.44 261.22 C401.18 265.72, 399.76 270.2, 398.2 274.6 C396.64 279.01, 394.92 283.38, 393.07 287.67 C391.21 291.96, 389.2 296.2, 387.05 300.36 C384.91 304.51, 382.62 308.6, 380.19 312.6 C377.77 316.6, 375.2 320.52, 372.51 324.35 C369.82 328.17, 367 331.91, 364.06 335.54 C361.11 339.17, 358.04 342.71, 354.86 346.13 C351.67 349.55, 348.36 352.86, 344.96 356.06 C341.55 359.25, 338.02 362.34, 334.4 365.29 C330.79 368.24, 327.06 371.08, 323.25 373.78 C319.44 376.48, 315.53 379.05, 311.54 381.48 C307.56 383.91, 303.48 386.21, 299.34 388.37 C295.2 390.52, 290.98 392.53, 286.7 394.4 C282.42 396.26, 278.07 397.98, 273.68 399.55 C269.28 401.12, 264.82 402.54, 260.33 403.8 C255.84 405.06, 251.3 406.17, 246.73 407.13 C242.17 408.08, 237.56 408.88, 232.94 409.51 C228.32 410.15, 223.66 410.63, 219.01 410.95 C214.36 411.27, 209.68 411.43, 205.02 411.43 C200.36 411.43, 195.68 411.27, 191.03 410.95 C186.38 410.63, 181.72 410.15, 177.1 409.51 C172.48 408.88, 167.87 408.08, 163.31 407.13 C158.74 406.17, 154.2 405.06, 149.71 403.8 C145.22 402.54, 140.76 401.12, 136.36 399.55 C131.97 397.98, 127.62 396.26, 123.34 394.4 C119.06 392.53, 114.84 390.52, 110.7 388.37 C106.56 386.21, 102.48 383.91, 98.49 381.48 C94.51 379.05, 90.6 376.48, 86.79 373.78 C82.98 371.08, 79.25 368.24, 75.63 365.29 C72.02 362.34, 68.49 359.25, 65.08 356.06 C61.67 352.86, 58.37 349.55, 55.18 346.13 C52 342.71, 48.93 339.17, 45.98 335.54 C43.04 331.91, 40.21 328.17, 37.52 324.35 C34.84 320.52, 32.27 316.6, 29.85 312.6 C27.42 308.6, 25.13 304.51, 22.99 300.36 C20.84 296.2, 18.83 291.96, 16.97 287.67 C15.12 283.38, 13.4 279.01, 11.84 274.6 C10.28 270.2, 8.86 265.72, 7.6 261.22 C6.34 256.71, 5.24 252.15, 4.29 247.57 C3.34 242.99, 2.54 238.36, 1.91 233.73 C1.27 229.09, 0.8 224.42, 0.48 219.75 C0.16 215.08, 0 210.39, 0 205.71 C0 201.04, 0.16 196.34, 0.48 191.68 C0.8 187.01, 1.27 182.34, 1.91 177.7 C2.54 173.07, 3.34 168.44, 4.29 163.86 C5.24 159.28, 6.34 154.72, 7.6 150.21 C8.86 145.71, 10.28 141.23, 11.84 136.83 C13.4 132.42, 15.12 128.05, 16.97 123.76 C18.83 119.47, 20.84 115.23, 22.99 111.07 C25.13 106.92, 27.42 102.83, 29.85 98.83 C32.27 94.83, 34.84 90.91, 37.52 87.08 C40.21 83.26, 43.04 79.52, 45.98 75.89 C48.93 72.26, 52 68.72, 55.18 65.3 C58.37 61.88, 61.67 58.57, 65.08 55.37 C68.49 52.18, 72.02 49.09, 75.63 46.14 C79.25 43.19, 82.98 40.35, 86.79 37.65 C90.6 34.95, 94.51 32.38, 98.49 29.95 C102.48 27.52, 106.56 25.22, 110.7 23.06 C114.84 20.91, 119.06 18.9, 123.34 17.03 C127.62 15.17, 131.97 13.44, 136.36 11.88 C140.76 10.31, 145.22 8.89, 149.71 7.63 C154.2 6.37, 158.74 5.25, 163.31 4.3 C167.87 3.35, 172.48 2.55, 177.1 1.92 C181.72 1.28, 186.38 0.8, 191.03 0.48 C195.68 0.16, 200.36 0, 205.02 0 C209.68 0, 214.36 0.16, 219.01 0.48 C223.66 0.8, 228.32 1.28, 232.94 1.92 C237.56 2.55, 242.17 3.35, 246.73 4.3 C251.3 5.25, 255.84 6.37, 260.33 7.63 C264.82 8.89, 269.28 10.31, 273.68 11.88 C278.07 13.44, 282.42 15.17, 286.7 17.03 C290.98 18.9, 295.2 20.91, 299.34 23.06 C303.48 25.22, 307.56 27.52, 311.54 29.95 C315.53 32.38, 319.44 34.95, 323.25 37.65 C327.06 40.35, 330.79 43.19, 334.4 46.14 C338.02 49.09, 341.55 52.18, 344.96 55.37 C348.36 58.57, 351.67 61.88, 354.86 65.3 C358.04 68.72, 361.11 72.26, 364.06 75.89 C367 79.52, 369.82 83.26, 372.51 87.08 C375.2 90.91, 377.77 94.83, 380.19 98.83 C382.62 102.83, 384.91 106.92, 387.05 111.07 C389.2 115.23, 391.21 119.47, 393.07 123.76 C394.92 128.05, 396.64 132.42, 398.2 136.83 C399.76 141.23, 401.18 145.71, 402.44 150.21 C403.69 154.72, 404.8 159.28, 405.75 163.86 C406.7 168.44, 407.49 173.07, 408.13 177.7 C408.76 182.34, 409.24 187.01, 409.56 191.68 C409.88 196.34, 410.04 201.04, 410.04 205.71" stroke="#1e1e1e" stroke-width="4" fill="none"></path></g><g stroke-linecap="round" transform="translate(1281.1209664123105 2758.6532124285613) rotate(0 205.01951071166297 205.71471799600286)"><path d="M410.04 205.71 C410.04 210.39, 409.88 215.08, 409.56 219.75 C409.24 224.42, 408.76 229.09, 408.13 233.73 C407.49 238.36, 406.7 242.99, 405.75 247.57 C404.8 252.15, 403.69 256.71, 402.44 261.22 C401.18 265.72, 399.76 270.2, 398.2 274.6 C396.64 279.01, 394.92 283.38, 393.07 287.67 C391.21 291.96, 389.2 296.2, 387.05 300.36 C384.91 304.51, 382.62 308.6, 380.19 312.6 C377.77 316.6, 375.2 320.52, 372.51 324.35 C369.82 328.17, 367 331.91, 364.06 335.54 C361.11 339.17, 358.04 342.71, 354.86 346.13 C351.67 349.55, 348.36 352.86, 344.96 356.06 C341.55 359.25, 338.02 362.34, 334.4 365.29 C330.79 368.24, 327.06 371.08, 323.25 373.78 C319.44 376.48, 315.53 379.05, 311.54 381.48 C307.56 383.91, 303.48 386.21, 299.34 388.37 C295.2 390.52, 290.98 392.53, 286.7 394.4 C282.42 396.26, 278.07 397.98, 273.68 399.55 C269.28 401.12, 264.82 402.54, 260.33 403.8 C255.84 405.06, 251.3 406.17, 246.73 407.13 C242.17 408.08, 237.56 408.88, 232.94 409.51 C228.32 410.15, 223.66 410.63, 219.01 410.95 C214.36 411.27, 209.68 411.43, 205.02 411.43 C200.36 411.43, 195.68 411.27, 191.03 410.95 C186.38 410.63, 181.72 410.15, 177.1 409.51 C172.48 408.88, 167.87 408.08, 163.31 407.13 C158.74 406.17, 154.2 405.06, 149.71 403.8 C145.22 402.54, 140.76 401.12, 136.36 399.55 C131.97 397.98, 127.62 396.26, 123.34 394.4 C119.06 392.53, 114.84 390.52, 110.7 388.37 C106.56 386.21, 102.48 383.91, 98.49 381.48 C94.51 379.05, 90.6 376.48, 86.79 373.78 C82.98 371.08, 79.25 368.24, 75.63 365.29 C72.02 362.34, 68.49 359.25, 65.08 356.06 C61.67 352.86, 58.37 349.55, 55.18 346.13 C52 342.71, 48.93 339.17, 45.98 335.54 C43.04 331.91, 40.21 328.17, 37.52 324.35 C34.84 320.52, 32.27 316.6, 29.85 312.6 C27.42 308.6, 25.13 304.51, 22.99 300.36 C20.84 296.2, 18.83 291.96, 16.97 287.67 C15.12 283.38, 13.4 279.01, 11.84 274.6 C10.28 270.2, 8.86 265.72, 7.6 261.22 C6.34 256.71, 5.24 252.15, 4.29 247.57 C3.34 242.99, 2.54 238.36, 1.91 233.73 C1.27 229.09, 0.8 224.42, 0.48 219.75 C0.16 215.08, 0 210.39, 0 205.71 C0 201.04, 0.16 196.34, 0.48 191.68 C0.8 187.01, 1.27 182.34, 1.91 177.7 C2.54 173.07, 3.34 168.44, 4.29 163.86 C5.24 159.28, 6.34 154.72, 7.6 150.21 C8.86 145.71, 10.28 141.23, 11.84 136.83 C13.4 132.42, 15.12 128.05, 16.97 123.76 C18.83 119.47, 20.84 115.23, 22.99 111.07 C25.13 106.92, 27.42 102.83, 29.85 98.83 C32.27 94.83, 34.84 90.91, 37.52 87.08 C40.21 83.26, 43.04 79.52, 45.98 75.89 C48.93 72.26, 52 68.72, 55.18 65.3 C58.37 61.88, 61.67 58.57, 65.08 55.37 C68.49 52.18, 72.02 49.09, 75.63 46.14 C79.25 43.19, 82.98 40.35, 86.79 37.65 C90.6 34.95, 94.51 32.38, 98.49 29.95 C102.48 27.52, 106.56 25.22, 110.7 23.06 C114.84 20.91, 119.06 18.9, 123.34 17.03 C127.62 15.17, 131.97 13.44, 136.36 11.88 C140.76 10.31, 145.22 8.89, 149.71 7.63 C154.2 6.37, 158.74 5.25, 163.31 4.3 C167.87 3.35, 172.48 2.55, 177.1 1.92 C181.72 1.28, 186.38 0.8, 191.03 0.48 C195.68 0.16, 200.36 0, 205.02 0 C209.68 0, 214.36 0.16, 219.01 0.48 C223.66 0.8, 228.32 1.28, 232.94 1.92 C237.56 2.55, 242.17 3.35, 246.73 4.3 C251.3 5.25, 255.84 6.37, 260.33 7.63 C264.82 8.89, 269.28 10.31, 273.68 11.88 C278.07 13.44, 282.42 15.17, 286.7 17.03 C290.98 18.9, 295.2 20.91, 299.34 23.06 C303.48 25.22, 307.56 27.52, 311.54 29.95 C315.53 32.38, 319.44 34.95, 323.25 37.65 C327.06 40.35, 330.79 43.19, 334.4 46.14 C338.02 49.09, 341.55 52.18, 344.96 55.37 C348.36 58.57, 351.67 61.88, 354.86 65.3 C358.04 68.72, 361.11 72.26, 364.06 75.89 C367 79.52, 369.82 83.26, 372.51 87.08 C375.2 90.91, 377.77 94.83, 380.19 98.83 C382.62 102.83, 384.91 106.92, 387.05 111.07 C389.2 115.23, 391.21 119.47, 393.07 123.76 C394.92 128.05, 396.64 132.42, 398.2 136.83 C399.76 141.23, 401.18 145.71, 402.44 150.21 C403.69 154.72, 404.8 159.28, 405.75 163.86 C406.7 168.44, 407.49 173.07, 408.13 177.7 C408.76 182.34, 409.24 187.01, 409.56 191.68 C409.88 196.34, 410.04 201.04, 410.04 205.71" stroke="none" stroke-width="0" fill="#ffffff"></path><path d="M410.04 205.71 C410.04 210.39, 409.88 215.08, 409.56 219.75 C409.24 224.42, 408.76 229.09, 408.13 233.73 C407.49 238.36, 406.7 242.99, 405.75 247.57 C404.8 252.15, 403.69 256.71, 402.44 261.22 C401.18 265.72, 399.76 270.2, 398.2 274.6 C396.64 279.01, 394.92 283.38, 393.07 287.67 C391.21 291.96, 389.2 296.2, 387.05 300.36 C384.91 304.51, 382.62 308.6, 380.19 312.6 C377.77 316.6, 375.2 320.52, 372.51 324.35 C369.82 328.17, 367 331.91, 364.06 335.54 C361.11 339.17, 358.04 342.71, 354.86 346.13 C351.67 349.55, 348.36 352.86, 344.96 356.06 C341.55 359.25, 338.02 362.34, 334.4 365.29 C330.79 368.24, 327.06 371.08, 323.25 373.78 C319.44 376.48, 315.53 379.05, 311.54 381.48 C307.56 383.91, 303.48 386.21, 299.34 388.37 C295.2 390.52, 290.98 392.53, 286.7 394.4 C282.42 396.26, 278.07 397.98, 273.68 399.55 C269.28 401.12, 264.82 402.54, 260.33 403.8 C255.84 405.06, 251.3 406.17, 246.73 407.13 C242.17 408.08, 237.56 408.88, 232.94 409.51 C228.32 410.15, 223.66 410.63, 219.01 410.95 C214.36 411.27, 209.68 411.43, 205.02 411.43 C200.36 411.43, 195.68 411.27, 191.03 410.95 C186.38 410.63, 181.72 410.15, 177.1 409.51 C172.48 408.88, 167.87 408.08, 163.31 407.13 C158.74 406.17, 154.2 405.06, 149.71 403.8 C145.22 402.54, 140.76 401.12, 136.36 399.55 C131.97 397.98, 127.62 396.26, 123.34 394.4 C119.06 392.53, 114.84 390.52, 110.7 388.37 C106.56 386.21, 102.48 383.91, 98.49 381.48 C94.51 379.05, 90.6 376.48, 86.79 373.78 C82.98 371.08, 79.25 368.24, 75.63 365.29 C72.02 362.34, 68.49 359.25, 65.08 356.06 C61.67 352.86, 58.37 349.55, 55.18 346.13 C52 342.71, 48.93 339.17, 45.98 335.54 C43.04 331.91, 40.21 328.17, 37.52 324.35 C34.84 320.52, 32.27 316.6, 29.85 312.6 C27.42 308.6, 25.13 304.51, 22.99 300.36 C20.84 296.2, 18.83 291.96, 16.97 287.67 C15.12 283.38, 13.4 279.01, 11.84 274.6 C10.28 270.2, 8.86 265.72, 7.6 261.22 C6.34 256.71, 5.24 252.15, 4.29 247.57 C3.34 242.99, 2.54 238.36, 1.91 233.73 C1.27 229.09, 0.8 224.42, 0.48 219.75 C0.16 215.08, 0 210.39, 0 205.71 C0 201.04, 0.16 196.34, 0.48 191.68 C0.8 187.01, 1.27 182.34, 1.91 177.7 C2.54 173.07, 3.34 168.44, 4.29 163.86 C5.24 159.28, 6.34 154.72, 7.6 150.21 C8.86 145.71, 10.28 141.23, 11.84 136.83 C13.4 132.42, 15.12 128.05, 16.97 123.76 C18.83 119.47, 20.84 115.23, 22.99 111.07 C25.13 106.92, 27.42 102.83, 29.85 98.83 C32.27 94.83, 34.84 90.91, 37.52 87.08 C40.21 83.26, 43.04 79.52, 45.98 75.89 C48.93 72.26, 52 68.72, 55.18 65.3 C58.37 61.88, 61.67 58.57, 65.08 55.37 C68.49 52.18, 72.02 49.09, 75.63 46.14 C79.25 43.19, 82.98 40.35, 86.79 37.65 C90.6 34.95, 94.51 32.38, 98.49 29.95 C102.48 27.52, 106.56 25.22, 110.7 23.06 C114.84 20.91, 119.06 18.9, 123.34 17.03 C127.62 15.17, 131.97 13.44, 136.36 11.88 C140.76 10.31, 145.22 8.89, 149.71 7.63 C154.2 6.37, 158.74 5.25, 163.31 4.3 C167.87 3.35, 172.48 2.55, 177.1 1.92 C181.72 1.28, 186.38 0.8, 191.03 0.48 C195.68 0.16, 200.36 0, 205.02 0 C209.68 0, 214.36 0.16, 219.01 0.48 C223.66 0.8, 228.32 1.28, 232.94 1.92 C237.56 2.55, 242.17 3.35, 246.73 4.3 C251.3 5.25, 255.84 6.37, 260.33 7.63 C264.82 8.89, 269.28 10.31, 273.68 11.88 C278.07 13.44, 282.42 15.17, 286.7 17.03 C290.98 18.9, 295.2 20.91, 299.34 23.06 C303.48 25.22, 307.56 27.52, 311.54 29.95 C315.53 32.38, 319.44 34.95, 323.25 37.65 C327.06 40.35, 330.79 43.19, 334.4 46.14 C338.02 49.09, 341.55 52.18, 344.96 55.37 C348.36 58.57, 351.67 61.88, 354.86 65.3 C358.04 68.72, 361.11 72.26, 364.06 75.89 C367 79.52, 369.82 83.26, 372.51 87.08 C375.2 90.91, 377.77 94.83, 380.19 98.83 C382.62 102.83, 384.91 106.92, 387.05 111.07 C389.2 115.23, 391.21 119.47, 393.07 123.76 C394.92 128.05, 396.64 132.42, 398.2 136.83 C399.76 141.23, 401.18 145.71, 402.44 150.21 C403.69 154.72, 404.8 159.28, 405.75 163.86 C406.7 168.44, 407.49 173.07, 408.13 177.7 C408.76 182.34, 409.24 187.01, 409.56 191.68 C409.88 196.34, 410.04 201.04, 410.04 205.71" stroke="#1e1e1e" stroke-width="4" fill="none"></path></g><g stroke-linecap="round"><g transform="translate(378.6446059272574 2394.0203762310207) rotate(0 452.11761440689827 261.9153622133625)"><path d="M0 0 C150.71 87.31, 753.53 436.53, 904.24 523.83 M0 0 C150.71 87.31, 753.53 436.53, 904.24 523.83" stroke="#1e1e1e" stroke-width="4" fill="none"></path></g></g><mask></mask><g stroke-linecap="round" transform="translate(1638.4958950834155 1428.7081488753888) rotate(0 205.01951071166297 205.71471799600283)"><path d="M410.04 205.71 C410.04 210.39, 409.88 215.08, 409.56 219.75 C409.24 224.42, 408.76 229.09, 408.13 233.73 C407.49 238.36, 406.7 242.99, 405.75 247.57 C404.8 252.15, 403.69 256.71, 402.44 261.22 C401.18 265.72, 399.76 270.2, 398.2 274.6 C396.64 279.01, 394.92 283.38, 393.07 287.67 C391.21 291.96, 389.2 296.2, 387.05 300.36 C384.91 304.51, 382.62 308.6, 380.19 312.6 C377.77 316.6, 375.2 320.52, 372.51 324.35 C369.82 328.17, 367 331.91, 364.06 335.54 C361.11 339.17, 358.04 342.71, 354.86 346.13 C351.67 349.55, 348.36 352.86, 344.96 356.06 C341.55 359.25, 338.02 362.34, 334.4 365.29 C330.79 368.24, 327.06 371.08, 323.25 373.78 C319.44 376.48, 315.53 379.05, 311.54 381.48 C307.56 383.91, 303.48 386.21, 299.34 388.37 C295.2 390.52, 290.98 392.53, 286.7 394.4 C282.42 396.26, 278.07 397.98, 273.68 399.55 C269.28 401.12, 264.82 402.54, 260.33 403.8 C255.84 405.06, 251.3 406.17, 246.73 407.13 C242.17 408.08, 237.56 408.88, 232.94 409.51 C228.32 410.15, 223.66 410.63, 219.01 410.95 C214.36 411.27, 209.68 411.43, 205.02 411.43 C200.36 411.43, 195.68 411.27, 191.03 410.95 C186.38 410.63, 181.72 410.15, 177.1 409.51 C172.48 408.88, 167.87 408.08, 163.31 407.13 C158.74 406.17, 154.2 405.06, 149.71 403.8 C145.22 402.54, 140.76 401.12, 136.36 399.55 C131.97 397.98, 127.62 396.26, 123.34 394.4 C119.06 392.53, 114.84 390.52, 110.7 388.37 C106.56 386.21, 102.48 383.91, 98.49 381.48 C94.51 379.05, 90.6 376.48, 86.79 373.78 C82.98 371.08, 79.25 368.24, 75.63 365.29 C72.02 362.34, 68.49 359.25, 65.08 356.06 C61.67 352.86, 58.37 349.55, 55.18 346.13 C52 342.71, 48.93 339.17, 45.98 335.54 C43.04 331.91, 40.21 328.17, 37.52 324.35 C34.84 320.52, 32.27 316.6, 29.85 312.6 C27.42 308.6, 25.13 304.51, 22.99 300.36 C20.84 296.2, 18.83 291.96, 16.97 287.67 C15.12 283.38, 13.4 279.01, 11.84 274.6 C10.28 270.2, 8.86 265.72, 7.6 261.22 C6.34 256.71, 5.24 252.15, 4.29 247.57 C3.34 242.99, 2.54 238.36, 1.91 233.73 C1.27 229.09, 0.8 224.42, 0.48 219.75 C0.16 215.08, 0 210.39, 0 205.71 C0 201.04, 0.16 196.34, 0.48 191.68 C0.8 187.01, 1.27 182.34, 1.91 177.7 C2.54 173.07, 3.34 168.44, 4.29 163.86 C5.24 159.28, 6.34 154.72, 7.6 150.21 C8.86 145.71, 10.28 141.23, 11.84 136.83 C13.4 132.42, 15.12 128.05, 16.97 123.76 C18.83 119.47, 20.84 115.23, 22.99 111.07 C25.13 106.92, 27.42 102.83, 29.85 98.83 C32.27 94.83, 34.84 90.91, 37.52 87.08 C40.21 83.26, 43.04 79.52, 45.98 75.89 C48.93 72.26, 52 68.72, 55.18 65.3 C58.37 61.88, 61.67 58.57, 65.08 55.37 C68.49 52.18, 72.02 49.09, 75.63 46.14 C79.25 43.19, 82.98 40.35, 86.79 37.65 C90.6 34.95, 94.51 32.38, 98.49 29.95 C102.48 27.52, 106.56 25.22, 110.7 23.06 C114.84 20.91, 119.06 18.9, 123.34 17.03 C127.62 15.17, 131.97 13.44, 136.36 11.88 C140.76 10.31, 145.22 8.89, 149.71 7.63 C154.2 6.37, 158.74 5.25, 163.31 4.3 C167.87 3.35, 172.48 2.55, 177.1 1.92 C181.72 1.28, 186.38 0.8, 191.03 0.48 C195.68 0.16, 200.36 0, 205.02 0 C209.68 0, 214.36 0.16, 219.01 0.48 C223.66 0.8, 228.32 1.28, 232.94 1.92 C237.56 2.55, 242.17 3.35, 246.73 4.3 C251.3 5.25, 255.84 6.37, 260.33 7.63 C264.82 8.89, 269.28 10.31, 273.68 11.88 C278.07 13.44, 282.42 15.17, 286.7 17.03 C290.98 18.9, 295.2 20.91, 299.34 23.06 C303.48 25.22, 307.56 27.52, 311.54 29.95 C315.53 32.38, 319.44 34.95, 323.25 37.65 C327.06 40.35, 330.79 43.19, 334.4 46.14 C338.02 49.09, 341.55 52.18, 344.96 55.37 C348.36 58.57, 351.67 61.88, 354.86 65.3 C358.04 68.72, 361.11 72.26, 364.06 75.89 C367 79.52, 369.82 83.26, 372.51 87.08 C375.2 90.91, 377.77 94.83, 380.19 98.83 C382.62 102.83, 384.91 106.92, 387.05 111.07 C389.2 115.23, 391.21 119.47, 393.07 123.76 C394.92 128.05, 396.64 132.42, 398.2 136.83 C399.76 141.23, 401.18 145.71, 402.44 150.21 C403.69 154.72, 404.8 159.28, 405.75 163.86 C406.7 168.44, 407.49 173.07, 408.13 177.7 C408.76 182.34, 409.24 187.01, 409.56 191.68 C409.88 196.34, 410.04 201.04, 410.04 205.71" stroke="none" stroke-width="0" fill="#ffffff"></path><path d="M410.04 205.71 C410.04 210.39, 409.88 215.08, 409.56 219.75 C409.24 224.42, 408.76 229.09, 408.13 233.73 C407.49 238.36, 406.7 242.99, 405.75 247.57 C404.8 252.15, 403.69 256.71, 402.44 261.22 C401.18 265.72, 399.76 270.2, 398.2 274.6 C396.64 279.01, 394.92 283.38, 393.07 287.67 C391.21 291.96, 389.2 296.2, 387.05 300.36 C384.91 304.51, 382.62 308.6, 380.19 312.6 C377.77 316.6, 375.2 320.52, 372.51 324.35 C369.82 328.17, 367 331.91, 364.06 335.54 C361.11 339.17, 358.04 342.71, 354.86 346.13 C351.67 349.55, 348.36 352.86, 344.96 356.06 C341.55 359.25, 338.02 362.34, 334.4 365.29 C330.79 368.24, 327.06 371.08, 323.25 373.78 C319.44 376.48, 315.53 379.05, 311.54 381.48 C307.56 383.91, 303.48 386.21, 299.34 388.37 C295.2 390.52, 290.98 392.53, 286.7 394.4 C282.42 396.26, 278.07 397.98, 273.68 399.55 C269.28 401.12, 264.82 402.54, 260.33 403.8 C255.84 405.06, 251.3 406.17, 246.73 407.13 C242.17 408.08, 237.56 408.88, 232.94 409.51 C228.32 410.15, 223.66 410.63, 219.01 410.95 C214.36 411.27, 209.68 411.43, 205.02 411.43 C200.36 411.43, 195.68 411.27, 191.03 410.95 C186.38 410.63, 181.72 410.15, 177.1 409.51 C172.48 408.88, 167.87 408.08, 163.31 407.13 C158.74 406.17, 154.2 405.06, 149.71 403.8 C145.22 402.54, 140.76 401.12, 136.36 399.55 C131.97 397.98, 127.62 396.26, 123.34 394.4 C119.06 392.53, 114.84 390.52, 110.7 388.37 C106.56 386.21, 102.48 383.91, 98.49 381.48 C94.51 379.05, 90.6 376.48, 86.79 373.78 C82.98 371.08, 79.25 368.24, 75.63 365.29 C72.02 362.34, 68.49 359.25, 65.08 356.06 C61.67 352.86, 58.37 349.55, 55.18 346.13 C52 342.71, 48.93 339.17, 45.98 335.54 C43.04 331.91, 40.21 328.17, 37.52 324.35 C34.84 320.52, 32.27 316.6, 29.85 312.6 C27.42 308.6, 25.13 304.51, 22.99 300.36 C20.84 296.2, 18.83 291.96, 16.97 287.67 C15.12 283.38, 13.4 279.01, 11.84 274.6 C10.28 270.2, 8.86 265.72, 7.6 261.22 C6.34 256.71, 5.24 252.15, 4.29 247.57 C3.34 242.99, 2.54 238.36, 1.91 233.73 C1.27 229.09, 0.8 224.42, 0.48 219.75 C0.16 215.08, 0 210.39, 0 205.71 C0 201.04, 0.16 196.34, 0.48 191.68 C0.8 187.01, 1.27 182.34, 1.91 177.7 C2.54 173.07, 3.34 168.44, 4.29 163.86 C5.24 159.28, 6.34 154.72, 7.6 150.21 C8.86 145.71, 10.28 141.23, 11.84 136.83 C13.4 132.42, 15.12 128.05, 16.97 123.76 C18.83 119.47, 20.84 115.23, 22.99 111.07 C25.13 106.92, 27.42 102.83, 29.85 98.83 C32.27 94.83, 34.84 90.91, 37.52 87.08 C40.21 83.26, 43.04 79.52, 45.98 75.89 C48.93 72.26, 52 68.72, 55.18 65.3 C58.37 61.88, 61.67 58.57, 65.08 55.37 C68.49 52.18, 72.02 49.09, 75.63 46.14 C79.25 43.19, 82.98 40.35, 86.79 37.65 C90.6 34.95, 94.51 32.38, 98.49 29.95 C102.48 27.52, 106.56 25.22, 110.7 23.06 C114.84 20.91, 119.06 18.9, 123.34 17.03 C127.62 15.17, 131.97 13.44, 136.36 11.88 C140.76 10.31, 145.22 8.89, 149.71 7.63 C154.2 6.37, 158.74 5.25, 163.31 4.3 C167.87 3.35, 172.48 2.55, 177.1 1.92 C181.72 1.28, 186.38 0.8, 191.03 0.48 C195.68 0.16, 200.36 0, 205.02 0 C209.68 0, 214.36 0.16, 219.01 0.48 C223.66 0.8, 228.32 1.28, 232.94 1.92 C237.56 2.55, 242.17 3.35, 246.73 4.3 C251.3 5.25, 255.84 6.37, 260.33 7.63 C264.82 8.89, 269.28 10.31, 273.68 11.88 C278.07 13.44, 282.42 15.17, 286.7 17.03 C290.98 18.9, 295.2 20.91, 299.34 23.06 C303.48 25.22, 307.56 27.52, 311.54 29.95 C315.53 32.38, 319.44 34.95, 323.25 37.65 C327.06 40.35, 330.79 43.19, 334.4 46.14 C338.02 49.09, 341.55 52.18, 344.96 55.37 C348.36 58.57, 351.67 61.88, 354.86 65.3 C358.04 68.72, 361.11 72.26, 364.06 75.89 C367 79.52, 369.82 83.26, 372.51 87.08 C375.2 90.91, 377.77 94.83, 380.19 98.83 C382.62 102.83, 384.91 106.92, 387.05 111.07 C389.2 115.23, 391.21 119.47, 393.07 123.76 C394.92 128.05, 396.64 132.42, 398.2 136.83 C399.76 141.23, 401.18 145.71, 402.44 150.21 C403.69 154.72, 404.8 159.28, 405.75 163.86 C406.7 168.44, 407.49 173.07, 408.13 177.7 C408.76 182.34, 409.24 187.01, 409.56 191.68 C409.88 196.34, 410.04 201.04, 410.04 205.71" stroke="#1e1e1e" stroke-width="4" fill="none"></path></g><g stroke-linecap="round"><g transform="translate(1535.056854647751 2762.790892766173) rotate(0 123.85094715111268 -463.7853773795322)"><path d="M0 0 C41.28 -154.6, 206.42 -772.98, 247.7 -927.57 M0 0 C41.28 -154.6, 206.42 -772.98, 247.7 -927.57" stroke="#1e1e1e" stroke-width="4" fill="none"></path></g></g><mask></mask><g stroke-linecap="round"><g transform="translate(379.47753981643694 2157.9605274834507) rotate(0 668.7191255876212 -179.79034624080646)"><path d="M0 0 C222.91 -59.93, 1114.53 -299.65, 1337.44 -359.58 M0 0 C222.91 -59.93, 1114.53 -299.65, 1337.44 -359.58" stroke="#1e1e1e" stroke-width="4" fill="none"></path></g></g><mask></mask><g stroke-linecap="round" transform="translate(112.70299231014724 322.4955436331393) rotate(0 342.40980495617595 180)"><path d="M32 0 C178.4 0, 324.79 0, 652.82 0 C674.15 0, 684.82 10.67, 684.82 32 C684.82 103.88, 684.82 175.76, 684.82 328 C684.82 349.33, 674.15 360, 652.82 360 C419.81 360, 186.8 360, 32 360 C10.67 360, 0 349.33, 0 328 C0 219.45, 0 110.9, 0 32 C0 10.67, 10.67 0, 32 0" stroke="none" stroke-width="0" fill="#ffffff"></path><path d="M32 0 C257.61 0, 483.22 0, 652.82 0 M32 0 C177.02 0, 322.04 0, 652.82 0 M652.82 0 C674.15 0, 684.82 10.67, 684.82 32 M652.82 0 C674.15 0, 684.82 10.67, 684.82 32 M684.82 32 C684.82 128.63, 684.82 225.26, 684.82 328 M684.82 32 C684.82 111.35, 684.82 190.7, 684.82 328 M684.82 328 C684.82 349.33, 674.15 360, 652.82 360 M684.82 328 C684.82 349.33, 674.15 360, 652.82 360 M652.82 360 C467.54 360, 282.25 360, 32 360 M652.82 360 C514.54 360, 376.26 360, 32 360 M32 360 C10.67 360, 0 349.33, 0 328 M32 360 C10.67 360, 0 349.33, 0 328 M0 328 C0 232.15, 0 136.3, 0 32 M0 328 C0 248.28, 0 168.57, 0 32 M0 32 C0 10.67, 10.67 0, 32 0 M0 32 C0 10.67, 10.67 0, 32 0" stroke="#1e1e1e" stroke-width="4" fill="none"></path></g><g stroke-linecap="round"><g transform="translate(580.3223528099998 322.19838897407817) rotate(0 0 180.19337018620627)"><path d="M0 0 C0 60.06, 0 300.32, 0 360.39 M0 0 C0 60.06, 0 300.32, 0 360.39" stroke="#1e1e1e" stroke-width="4" fill="none"></path></g></g><mask></mask><g stroke-linecap="round" transform="translate(1085.7059998916811 322.7926980091597) rotate(0 342.409804956176 180)"><path d="M32 0 C189.21 0, 346.41 0, 652.82 0 C674.15 0, 684.82 10.67, 684.82 32 C684.82 135.14, 684.82 238.28, 684.82 328 C684.82 349.33, 674.15 360, 652.82 360 C448.41 360, 244 360, 32 360 C10.67 360, 0 349.33, 0 328 C0 227.84, 0 127.67, 0 32 C0 10.67, 10.67 0, 32 0" stroke="none" stroke-width="0" fill="#ffffff"></path><path d="M32 0 C215.29 0, 398.57 0, 652.82 0 M32 0 C181.55 0, 331.1 0, 652.82 0 M652.82 0 C674.15 0, 684.82 10.67, 684.82 32 M652.82 0 C674.15 0, 684.82 10.67, 684.82 32 M684.82 32 C684.82 137.1, 684.82 242.19, 684.82 328 M684.82 32 C684.82 141.18, 684.82 250.36, 684.82 328 M684.82 328 C684.82 349.33, 674.15 360, 652.82 360 M684.82 328 C684.82 349.33, 674.15 360, 652.82 360 M652.82 360 C450.67 360, 248.51 360, 32 360 M652.82 360 C458.68 360, 264.54 360, 32 360 M32 360 C10.67 360, 0 349.33, 0 328 M32 360 C10.67 360, 0 349.33, 0 328 M0 328 C0 260.09, 0 192.18, 0 32 M0 328 C0 227.78, 0 127.56, 0 32 M0 32 C0 10.67, 10.67 0, 32 0 M0 32 C0 10.67, 10.67 0, 32 0" stroke="#1e1e1e" stroke-width="4" fill="none"></path></g><g stroke-linecap="round"><g transform="translate(1553.3253603915332 322.49554335009816) rotate(0 0 180.19337018620627)"><path d="M0 0 C0 60.06, 0 300.32, 0 360.39 M0 0 C0 60.06, 0 300.32, 0 360.39" stroke="#1e1e1e" stroke-width="4" fill="none"></path></g></g><mask></mask><g stroke-linecap="round" transform="translate(2058.709007224288 322.4059578223291) rotate(0 342.409804956176 180)"><path d="M32 0 C190.31 0, 348.62 0, 652.82 0 C674.15 0, 684.82 10.67, 684.82 32 C684.82 136.77, 684.82 241.53, 684.82 328 C684.82 349.33, 674.15 360, 652.82 360 C442 360, 231.19 360, 32 360 C10.67 360, 0 349.33, 0 328 C0 231.16, 0 134.32, 0 32 C0 10.67, 10.67 0, 32 0" stroke="none" stroke-width="0" fill="#ffffff"></path><path d="M32 0 C189.51 0, 347.01 0, 652.82 0 M32 0 C185.23 0, 338.46 0, 652.82 0 M652.82 0 C674.15 0, 684.82 10.67, 684.82 32 M652.82 0 C674.15 0, 684.82 10.67, 684.82 32 M684.82 32 C684.82 92.94, 684.82 153.88, 684.82 328 M684.82 32 C684.82 139.75, 684.82 247.5, 684.82 328 M684.82 328 C684.82 349.33, 674.15 360, 652.82 360 M684.82 328 C684.82 349.33, 674.15 360, 652.82 360 M652.82 360 C515.06 360, 377.29 360, 32 360 M652.82 360 C493.17 360, 333.53 360, 32 360 M32 360 C10.67 360, 0 349.33, 0 328 M32 360 C10.67 360, 0 349.33, 0 328 M0 328 C0 212.63, 0 97.26, 0 32 M0 328 C0 266.58, 0 205.15, 0 32 M0 32 C0 10.67, 10.67 0, 32 0 M0 32 C0 10.67, 10.67 0, 32 0" stroke="#1e1e1e" stroke-width="4" fill="none"></path></g><g stroke-linecap="round"><g transform="translate(2526.32836772414 322.10880316326757) rotate(0 0 180.19337018620627)"><path d="M0 0 C0 60.06, 0 300.32, 0 360.39 M0 0 C0 60.06, 0 300.32, 0 360.39" stroke="#1e1e1e" stroke-width="4" fill="none"></path></g></g><mask></mask><g stroke-linecap="round"><g transform="translate(729.9719568673645 504.36329070270494) rotate(0 175.84029625557025 0)"><path d="M0 0 C58.61 0, 293.07 0, 351.68 0 M0 0 C58.61 0, 293.07 0, 351.68 0" stroke="#ffffff" stroke-width="4" fill="none"></path></g><g transform="translate(729.9719568673645 504.36329070270494) rotate(0 175.84029625557025 0)"><path d="M328.19 8.55 C334.73 6.17, 341.26 3.79, 351.68 0 M328.19 8.55 C336.3 5.6, 344.42 2.64, 351.68 0" stroke="#ffffff" stroke-width="4" fill="none"></path></g><g transform="translate(729.9719568673645 504.36329070270494) rotate(0 175.84029625557025 0)"><path d="M328.19 -8.55 C334.73 -6.17, 341.26 -3.79, 351.68 0 M328.19 -8.55 C336.3 -5.6, 344.42 -2.64, 351.68 0" stroke="#ffffff" stroke-width="4" fill="none"></path></g></g><mask></mask><g stroke-linecap="round"><g transform="translate(1705.0825991795336 500.33681796702604) rotate(0 175.84029625557025 0)"><path d="M0 0 C58.61 0, 293.07 0, 351.68 0 M0 0 C58.61 0, 293.07 0, 351.68 0" stroke="#ffffff" stroke-width="4" fill="none"></path></g><g transform="translate(1705.0825991795336 500.33681796702604) rotate(0 175.84029625557025 0)"><path d="M328.19 8.55 C336.71 5.45, 345.23 2.35, 351.68 0 M328.19 8.55 C336.66 5.47, 345.13 2.38, 351.68 0" stroke="#ffffff" stroke-width="4" fill="none"></path></g><g transform="translate(1705.0825991795336 500.33681796702604) rotate(0 175.84029625557025 0)"><path d="M328.19 -8.55 C336.71 -5.45, 345.23 -2.35, 351.68 0 M328.19 -8.55 C336.66 -5.47, 345.13 -2.38, 351.68 0" stroke="#ffffff" stroke-width="4" fill="none"></path></g></g><mask></mask><g stroke-linecap="round" transform="translate(2550.497554800129 1992.5) rotate(0 304.08034917749956 950)"><path d="M32 0 C152.27 0, 272.54 0, 576.16 0 C597.49 0, 608.16 10.67, 608.16 32 C608.16 407.14, 608.16 782.28, 608.16 1868 C608.16 1889.33, 597.49 1900, 576.16 1900 C378.1 1900, 180.04 1900, 32 1900 C10.67 1900, 0 1889.33, 0 1868 C0 1256.25, 0 644.5, 0 32 C0 10.67, 10.67 0, 32 0" stroke="none" stroke-width="0" fill="#ffffff"></path><path d="M32 0 C244.59 0, 457.17 0, 576.16 0 M32 0 C166.52 0, 301.04 0, 576.16 0 M576.16 0 C597.49 0, 608.16 10.67, 608.16 32 M576.16 0 C597.49 0, 608.16 10.67, 608.16 32 M608.16 32 C608.16 563.13, 608.16 1094.26, 608.16 1868 M608.16 32 C608.16 416.48, 608.16 800.96, 608.16 1868 M608.16 1868 C608.16 1889.33, 597.49 1900, 576.16 1900 M608.16 1868 C608.16 1889.33, 597.49 1900, 576.16 1900 M576.16 1900 C375.81 1900, 175.46 1900, 32 1900 M576.16 1900 C464.34 1900, 352.51 1900, 32 1900 M32 1900 C10.67 1900, 0 1889.33, 0 1868 M32 1900 C10.67 1900, 0 1889.33, 0 1868 M0 1868 C0 1179.79, 0 491.58, 0 32 M0 1868 C0 1176.65, 0 485.31, 0 32 M0 32 C0 10.67, 10.67 0, 32 0 M0 32 C0 10.67, 10.67 0, 32 0" stroke="#1e1e1e" stroke-width="4" fill="none"></path></g><g stroke-linecap="round" transform="translate(3158.6582531551276 2622.5) rotate(0 304.08034917749956 635)"><path d="M32 0 C161.71 0, 291.41 0, 576.16 0 C597.49 0, 608.16 10.67, 608.16 32 C608.16 348.48, 608.16 664.97, 608.16 1238 C608.16 1259.33, 597.49 1270, 576.16 1270 C392.18 1270, 208.2 1270, 32 1270 C10.67 1270, 0 1259.33, 0 1238 C0 912.76, 0 587.52, 0 32 C0 10.67, 10.67 0, 32 0" stroke="none" stroke-width="0" fill="#ffffff"></path><path d="M32 0 C157.29 0, 282.57 0, 576.16 0 M32 0 C204.76 0, 377.51 0, 576.16 0 M576.16 0 C597.49 0, 608.16 10.67, 608.16 32 M576.16 0 C597.49 0, 608.16 10.67, 608.16 32 M608.16 32 C608.16 454.8, 608.16 877.6, 608.16 1238 M608.16 32 C608.16 301.01, 608.16 570.01, 608.16 1238 M608.16 1238 C608.16 1259.33, 597.49 1270, 576.16 1270 M608.16 1238 C608.16 1259.33, 597.49 1270, 576.16 1270 M576.16 1270 C402.6 1270, 229.04 1270, 32 1270 M576.16 1270 C390.04 1270, 203.91 1270, 32 1270 M32 1270 C10.67 1270, 0 1259.33, 0 1238 M32 1270 C10.67 1270, 0 1259.33, 0 1238 M0 1238 C0 984.53, 0 731.05, 0 32 M0 1238 C0 935.71, 0 633.43, 0 32 M0 32 C0 10.67, 10.67 0, 32 0 M0 32 C0 10.67, 10.67 0, 32 0" stroke="#1e1e1e" stroke-width="4" fill="none"></path></g><g stroke-linecap="round" transform="translate(3766.8189515101267 2272.5) rotate(0 304.08034917749956 809.9999999999999)"><path d="M32 0 C152.95 0, 273.9 0, 576.16 0 C597.49 0, 608.16 10.67, 608.16 32 C608.16 476.51, 608.16 921.02, 608.16 1588 C608.16 1609.33, 597.49 1620, 576.16 1620 C446.32 1620, 316.49 1620, 32 1620 C10.67 1620, 0 1609.33, 0 1588 C0 1059.98, 0 531.95, 0 32 C0 10.67, 10.67 0, 32 0" stroke="none" stroke-width="0" fill="#ffffff"></path><path d="M32 0 C192.12 0, 352.25 0, 576.16 0 M32 0 C236.67 0, 441.33 0, 576.16 0 M576.16 0 C597.49 0, 608.16 10.67, 608.16 32 M576.16 0 C597.49 0, 608.16 10.67, 608.16 32 M608.16 32 C608.16 531.42, 608.16 1030.83, 608.16 1588 M608.16 32 C608.16 450.74, 608.16 869.48, 608.16 1588 M608.16 1588 C608.16 1609.33, 597.49 1620, 576.16 1620 M608.16 1588 C608.16 1609.33, 597.49 1620, 576.16 1620 M576.16 1620 C463.87 1620, 351.58 1620, 32 1620 M576.16 1620 C462.81 1620, 349.46 1620, 32 1620 M32 1620 C10.67 1620, 0 1609.33, 0 1588 M32 1620 C10.67 1620, 0 1609.33, 0 1588 M0 1588 C0 1057.87, 0 527.74, 0 32 M0 1588 C0 1187.15, 0 786.29, 0 32 M0 32 C0 10.67, 10.67 0, 32 0 M0 32 C0 10.67, 10.67 0, 32 0" stroke="#1e1e1e" stroke-width="4" fill="none"></path></g><g stroke-linecap="round" transform="translate(4374.979649865126 2942.5000002211355) rotate(0 304.08034917749956 474.9999998894321)"><path d="M32 0 C157.2 0, 282.41 0, 576.16 0 C597.49 0, 608.16 10.67, 608.16 32 C608.16 294.65, 608.16 557.31, 608.16 918 C608.16 939.33, 597.49 950, 576.16 950 C440.14 950, 304.12 950, 32 950 C10.67 950, 0 939.33, 0 918 C0 639.74, 0 361.48, 0 32 C0 10.67, 10.67 0, 32 0" stroke="none" stroke-width="0" fill="#ffffff"></path><path d="M32 0 C141.9 0, 251.8 0, 576.16 0 M32 0 C187.06 0, 342.12 0, 576.16 0 M576.16 0 C597.49 0, 608.16 10.67, 608.16 32 M576.16 0 C597.49 0, 608.16 10.67, 608.16 32 M608.16 32 C608.16 344.05, 608.16 656.1, 608.16 918 M608.16 32 C608.16 229.25, 608.16 426.51, 608.16 918 M608.16 918 C608.16 939.33, 597.49 950, 576.16 950 M608.16 918 C608.16 939.33, 597.49 950, 576.16 950 M576.16 950 C456.53 950, 336.9 950, 32 950 M576.16 950 C399.63 950, 223.1 950, 32 950 M32 950 C10.67 950, 0 939.33, 0 918 M32 950 C10.67 950, 0 939.33, 0 918 M0 918 C0 629.28, 0 340.57, 0 32 M0 918 C0 687.27, 0 456.54, 0 32 M0 32 C0 10.67, 10.67 0, 32 0 M0 32 C0 10.67, 10.67 0, 32 0" stroke="#1e1e1e" stroke-width="4" fill="none"></path></g><g stroke-linecap="round" transform="translate(3800.5466021693737 9.999999999999545) rotate(0 231.1743935459474 226.17174133726735)"><path d="M462.35 226.17 C462.35 230.91, 462.2 235.65, 461.89 240.37 C461.59 245.1, 461.13 249.82, 460.53 254.52 C459.92 259.22, 459.16 263.9, 458.25 268.55 C457.35 273.2, 456.29 277.83, 455.09 282.42 C453.88 287, 452.53 291.56, 451.03 296.06 C449.54 300.56, 447.9 305.03, 446.11 309.43 C444.33 313.83, 442.41 318.19, 440.35 322.47 C438.29 326.75, 436.09 330.98, 433.75 335.13 C431.42 339.28, 428.95 343.36, 426.36 347.36 C423.77 351.36, 421.04 355.28, 418.2 359.11 C415.35 362.94, 412.38 366.69, 409.3 370.34 C406.21 373.99, 403.01 377.55, 399.69 381 C396.38 384.45, 392.95 387.8, 389.42 391.04 C385.9 394.28, 382.26 397.42, 378.53 400.44 C374.8 403.46, 370.97 406.37, 367.06 409.15 C363.14 411.93, 359.13 414.6, 355.04 417.13 C350.96 419.67, 346.78 422.09, 342.54 424.37 C338.3 426.65, 333.98 428.8, 329.6 430.82 C325.23 432.83, 320.77 434.72, 316.28 436.46 C311.78 438.2, 307.21 439.81, 302.61 441.27 C298.01 442.74, 293.35 444.06, 288.67 445.24 C283.98 446.42, 279.24 447.45, 274.49 448.34 C269.74 449.22, 264.95 449.97, 260.15 450.56 C255.35 451.15, 250.52 451.6, 245.69 451.9 C240.86 452.19, 236.01 452.34, 231.17 452.34 C226.34 452.34, 221.49 452.19, 216.66 451.9 C211.83 451.6, 207 451.15, 202.2 450.56 C197.4 449.97, 192.61 449.22, 187.86 448.34 C183.1 447.45, 178.37 446.42, 173.68 445.24 C169 444.06, 164.34 442.74, 159.74 441.27 C155.14 439.81, 150.57 438.2, 146.07 436.46 C141.57 434.72, 137.12 432.83, 132.75 430.82 C128.37 428.8, 124.05 426.65, 119.81 424.37 C115.57 422.09, 111.39 419.67, 107.3 417.13 C103.22 414.6, 99.21 411.93, 95.29 409.15 C91.38 406.37, 87.55 403.46, 83.82 400.44 C80.09 397.42, 76.45 394.28, 72.92 391.04 C69.4 387.8, 65.97 384.45, 62.66 381 C59.34 377.55, 56.14 373.99, 53.05 370.34 C49.97 366.69, 46.99 362.94, 44.15 359.11 C41.31 355.28, 38.58 351.36, 35.99 347.36 C33.39 343.36, 30.93 339.28, 28.59 335.13 C26.26 330.98, 24.06 326.75, 22 322.47 C19.94 318.19, 18.02 313.83, 16.23 309.43 C14.45 305.03, 12.81 300.56, 11.31 296.06 C9.82 291.56, 8.47 287, 7.26 282.42 C6.06 277.83, 5 273.2, 4.09 268.55 C3.19 263.9, 2.43 259.22, 1.82 254.52 C1.22 249.82, 0.76 245.1, 0.46 240.37 C0.15 235.65, 0 230.91, 0 226.17 C0 221.44, 0.15 216.69, 0.46 211.97 C0.76 207.25, 1.22 202.52, 1.82 197.82 C2.43 193.13, 3.19 188.44, 4.09 183.79 C5 179.14, 6.06 174.51, 7.26 169.93 C8.47 165.34, 9.82 160.78, 11.31 156.28 C12.81 151.78, 14.45 147.31, 16.23 142.91 C18.02 138.51, 19.94 134.16, 22 129.87 C24.06 125.59, 26.26 121.36, 28.59 117.21 C30.93 113.06, 33.39 108.98, 35.99 104.98 C38.58 100.99, 41.31 97.06, 44.15 93.23 C46.99 89.4, 49.97 85.65, 53.05 82 C56.14 78.36, 59.34 74.8, 62.66 71.35 C65.97 67.9, 69.4 64.54, 72.92 61.3 C76.45 58.06, 80.09 54.92, 83.82 51.9 C87.55 48.89, 91.38 45.98, 95.29 43.19 C99.21 40.41, 103.22 37.75, 107.3 35.21 C111.39 32.67, 115.57 30.26, 119.81 27.98 C124.05 25.7, 128.37 23.54, 132.75 21.53 C137.12 19.51, 141.57 17.63, 146.07 15.88 C150.57 14.14, 155.14 12.53, 159.74 11.07 C164.34 9.61, 169 8.28, 173.68 7.11 C178.37 5.93, 183.1 4.89, 187.86 4.01 C192.61 3.12, 197.4 2.38, 202.2 1.78 C207 1.19, 211.83 0.74, 216.66 0.45 C221.49 0.15, 226.34 0, 231.17 0 C236.01 0, 240.86 0.15, 245.69 0.45 C250.52 0.74, 255.35 1.19, 260.15 1.78 C264.95 2.38, 269.74 3.12, 274.49 4.01 C279.24 4.89, 283.98 5.93, 288.67 7.11 C293.35 8.28, 298.01 9.61, 302.61 11.07 C307.21 12.53, 311.78 14.14, 316.28 15.88 C320.77 17.63, 325.23 19.51, 329.6 21.53 C333.98 23.54, 338.3 25.7, 342.54 27.98 C346.78 30.26, 350.96 32.67, 355.04 35.21 C359.13 37.75, 363.14 40.41, 367.06 43.19 C370.97 45.98, 374.8 48.89, 378.53 51.9 C382.26 54.92, 385.9 58.06, 389.42 61.3 C392.95 64.54, 396.38 67.9, 399.69 71.35 C403.01 74.8, 406.21 78.36, 409.3 82 C412.38 85.65, 415.35 89.4, 418.2 93.23 C421.04 97.06, 423.77 100.99, 426.36 104.98 C428.95 108.98, 431.42 113.06, 433.75 117.21 C436.09 121.36, 438.29 125.59, 440.35 129.87 C442.41 134.16, 444.33 138.51, 446.11 142.91 C447.9 147.31, 449.54 151.78, 451.03 156.28 C452.53 160.78, 453.88 165.34, 455.09 169.93 C456.29 174.51, 457.35 179.14, 458.25 183.79 C459.16 188.44, 459.92 193.13, 460.53 197.82 C461.13 202.52, 461.59 207.25, 461.89 211.97 C462.2 216.69, 462.27 223.8, 462.35 226.17 C462.42 228.54, 462.42 223.8, 462.35 226.17" stroke="none" stroke-width="0" fill="#ffffff"></path><path d="M462.35 226.17 C462.35 230.91, 462.2 235.65, 461.89 240.37 C461.59 245.1, 461.13 249.82, 460.53 254.52 C459.92 259.22, 459.16 263.9, 458.25 268.55 C457.35 273.2, 456.29 277.83, 455.09 282.42 C453.88 287, 452.53 291.56, 451.03 296.06 C449.54 300.56, 447.9 305.03, 446.11 309.43 C444.33 313.83, 442.41 318.19, 440.35 322.47 C438.29 326.75, 436.09 330.98, 433.75 335.13 C431.42 339.28, 428.95 343.36, 426.36 347.36 C423.77 351.36, 421.04 355.28, 418.2 359.11 C415.35 362.94, 412.38 366.69, 409.3 370.34 C406.21 373.99, 403.01 377.55, 399.69 381 C396.38 384.45, 392.95 387.8, 389.42 391.04 C385.9 394.28, 382.26 397.42, 378.53 400.44 C374.8 403.46, 370.97 406.37, 367.06 409.15 C363.14 411.93, 359.13 414.6, 355.04 417.13 C350.96 419.67, 346.78 422.09, 342.54 424.37 C338.3 426.65, 333.98 428.8, 329.6 430.82 C325.23 432.83, 320.77 434.72, 316.28 436.46 C311.78 438.2, 307.21 439.81, 302.61 441.27 C298.01 442.74, 293.35 444.06, 288.67 445.24 C283.98 446.42, 279.24 447.45, 274.49 448.34 C269.74 449.22, 264.95 449.97, 260.15 450.56 C255.35 451.15, 250.52 451.6, 245.69 451.9 C240.86 452.19, 236.01 452.34, 231.17 452.34 C226.34 452.34, 221.49 452.19, 216.66 451.9 C211.83 451.6, 207 451.15, 202.2 450.56 C197.4 449.97, 192.61 449.22, 187.86 448.34 C183.1 447.45, 178.37 446.42, 173.68 445.24 C169 444.06, 164.34 442.74, 159.74 441.27 C155.14 439.81, 150.57 438.2, 146.07 436.46 C141.57 434.72, 137.12 432.83, 132.75 430.82 C128.37 428.8, 124.05 426.65, 119.81 424.37 C115.57 422.09, 111.39 419.67, 107.3 417.13 C103.22 414.6, 99.21 411.93, 95.29 409.15 C91.38 406.37, 87.55 403.46, 83.82 400.44 C80.09 397.42, 76.45 394.28, 72.92 391.04 C69.4 387.8, 65.97 384.45, 62.66 381 C59.34 377.55, 56.14 373.99, 53.05 370.34 C49.97 366.69, 46.99 362.94, 44.15 359.11 C41.31 355.28, 38.58 351.36, 35.99 347.36 C33.39 343.36, 30.93 339.28, 28.59 335.13 C26.26 330.98, 24.06 326.75, 22 322.47 C19.94 318.19, 18.02 313.83, 16.23 309.43 C14.45 305.03, 12.81 300.56, 11.31 296.06 C9.82 291.56, 8.47 287, 7.26 282.42 C6.06 277.83, 5 273.2, 4.09 268.55 C3.19 263.9, 2.43 259.22, 1.82 254.52 C1.22 249.82, 0.76 245.1, 0.46 240.37 C0.15 235.65, 0 230.91, 0 226.17 C0 221.44, 0.15 216.69, 0.46 211.97 C0.76 207.25, 1.22 202.52, 1.82 197.82 C2.43 193.13, 3.19 188.44, 4.09 183.79 C5 179.14, 6.06 174.51, 7.26 169.93 C8.47 165.34, 9.82 160.78, 11.31 156.28 C12.81 151.78, 14.45 147.31, 16.23 142.91 C18.02 138.51, 19.94 134.16, 22 129.87 C24.06 125.59, 26.26 121.36, 28.59 117.21 C30.93 113.06, 33.39 108.98, 35.99 104.98 C38.58 100.99, 41.31 97.06, 44.15 93.23 C46.99 89.4, 49.97 85.65, 53.05 82 C56.14 78.36, 59.34 74.8, 62.66 71.35 C65.97 67.9, 69.4 64.54, 72.92 61.3 C76.45 58.06, 80.09 54.92, 83.82 51.9 C87.55 48.89, 91.38 45.98, 95.29 43.19 C99.21 40.41, 103.22 37.75, 107.3 35.21 C111.39 32.67, 115.57 30.26, 119.81 27.98 C124.05 25.7, 128.37 23.54, 132.75 21.53 C137.12 19.51, 141.57 17.63, 146.07 15.88 C150.57 14.14, 155.14 12.53, 159.74 11.07 C164.34 9.61, 169 8.28, 173.68 7.11 C178.37 5.93, 183.1 4.89, 187.86 4.01 C192.61 3.12, 197.4 2.38, 202.2 1.78 C207 1.19, 211.83 0.74, 216.66 0.45 C221.49 0.15, 226.34 0, 231.17 0 C236.01 0, 240.86 0.15, 245.69 0.45 C250.52 0.74, 255.35 1.19, 260.15 1.78 C264.95 2.38, 269.74 3.12, 274.49 4.01 C279.24 4.89, 283.98 5.93, 288.67 7.11 C293.35 8.28, 298.01 9.61, 302.61 11.07 C307.21 12.53, 311.78 14.14, 316.28 15.88 C320.77 17.63, 325.23 19.51, 329.6 21.53 C333.98 23.54, 338.3 25.7, 342.54 27.98 C346.78 30.26, 350.96 32.67, 355.04 35.21 C359.13 37.75, 363.14 40.41, 367.06 43.19 C370.97 45.98, 374.8 48.89, 378.53 51.9 C382.26 54.92, 385.9 58.06, 389.42 61.3 C392.95 64.54, 396.38 67.9, 399.69 71.35 C403.01 74.8, 406.21 78.36, 409.3 82 C412.38 85.65, 415.35 89.4, 418.2 93.23 C421.04 97.06, 423.77 100.99, 426.36 104.98 C428.95 108.98, 431.42 113.06, 433.75 117.21 C436.09 121.36, 438.29 125.59, 440.35 129.87 C442.41 134.16, 444.33 138.51, 446.11 142.91 C447.9 147.31, 449.54 151.78, 451.03 156.28 C452.53 160.78, 453.88 165.34, 455.09 169.93 C456.29 174.51, 457.35 179.14, 458.25 183.79 C459.16 188.44, 459.92 193.13, 460.53 197.82 C461.13 202.52, 461.59 207.25, 461.89 211.97 C462.2 216.69, 462.27 223.8, 462.35 226.17 C462.42 228.54, 462.42 223.8, 462.35 226.17" stroke="#1e1e1e" stroke-width="4" fill="none"></path></g><g stroke-linecap="round"><g transform="translate(4514.619534655218 750.2938127574598) rotate(0 -171.62379896139623 -167.90983149394924)"><path d="M0 0 C-57.21 -55.97, -286.04 -279.85, -343.25 -335.82 M0 0 C-57.21 -55.97, -286.04 -279.85, -343.25 -335.82" stroke="#1e1e1e" stroke-width="4" fill="none"></path></g></g><mask></mask><g stroke-linecap="round" transform="translate(4447.859276152871 689.5169485461256) rotate(0 231.17439354594762 226.17174133726735)"><path d="M462.35 226.17 C462.35 230.91, 462.2 235.65, 461.89 240.37 C461.59 245.1, 461.13 249.82, 460.53 254.52 C459.92 259.22, 459.16 263.9, 458.25 268.55 C457.35 273.2, 456.29 277.83, 455.09 282.42 C453.88 287, 452.53 291.56, 451.03 296.06 C449.54 300.56, 447.9 305.03, 446.11 309.43 C444.33 313.83, 442.41 318.19, 440.35 322.47 C438.29 326.75, 436.09 330.98, 433.75 335.13 C431.42 339.28, 428.95 343.36, 426.36 347.36 C423.77 351.36, 421.04 355.28, 418.2 359.11 C415.35 362.94, 412.38 366.69, 409.3 370.34 C406.21 373.99, 403.01 377.55, 399.69 381 C396.38 384.45, 392.95 387.8, 389.42 391.04 C385.9 394.28, 382.26 397.42, 378.53 400.44 C374.8 403.46, 370.97 406.37, 367.06 409.15 C363.14 411.93, 359.13 414.6, 355.04 417.13 C350.96 419.67, 346.78 422.09, 342.54 424.37 C338.3 426.65, 333.98 428.8, 329.6 430.82 C325.23 432.83, 320.77 434.72, 316.28 436.46 C311.78 438.2, 307.21 439.81, 302.61 441.27 C298.01 442.74, 293.35 444.06, 288.67 445.24 C283.98 446.42, 279.24 447.45, 274.49 448.34 C269.74 449.22, 264.95 449.97, 260.15 450.56 C255.35 451.15, 250.52 451.6, 245.69 451.9 C240.86 452.19, 236.01 452.34, 231.17 452.34 C226.34 452.34, 221.49 452.19, 216.66 451.9 C211.83 451.6, 207 451.15, 202.2 450.56 C197.4 449.97, 192.61 449.22, 187.86 448.34 C183.1 447.45, 178.37 446.42, 173.68 445.24 C169 444.06, 164.34 442.74, 159.74 441.27 C155.14 439.81, 150.57 438.2, 146.07 436.46 C141.57 434.72, 137.12 432.83, 132.75 430.82 C128.37 428.8, 124.05 426.65, 119.81 424.37 C115.57 422.09, 111.39 419.67, 107.3 417.13 C103.22 414.6, 99.21 411.93, 95.29 409.15 C91.38 406.37, 87.55 403.46, 83.82 400.44 C80.09 397.42, 76.45 394.28, 72.92 391.04 C69.4 387.8, 65.97 384.45, 62.66 381 C59.34 377.55, 56.14 373.99, 53.05 370.34 C49.97 366.69, 46.99 362.94, 44.15 359.11 C41.31 355.28, 38.58 351.36, 35.99 347.36 C33.39 343.36, 30.93 339.28, 28.59 335.13 C26.26 330.98, 24.06 326.75, 22 322.47 C19.94 318.19, 18.02 313.83, 16.23 309.43 C14.45 305.03, 12.81 300.56, 11.31 296.06 C9.82 291.56, 8.47 287, 7.26 282.42 C6.06 277.83, 5 273.2, 4.09 268.55 C3.19 263.9, 2.43 259.22, 1.82 254.52 C1.22 249.82, 0.76 245.1, 0.46 240.37 C0.15 235.65, 0 230.91, 0 226.17 C0 221.44, 0.15 216.69, 0.46 211.97 C0.76 207.25, 1.22 202.52, 1.82 197.82 C2.43 193.13, 3.19 188.44, 4.09 183.79 C5 179.14, 6.06 174.51, 7.26 169.93 C8.47 165.34, 9.82 160.78, 11.31 156.28 C12.81 151.78, 14.45 147.31, 16.23 142.91 C18.02 138.51, 19.94 134.16, 22 129.87 C24.06 125.59, 26.26 121.36, 28.59 117.21 C30.93 113.06, 33.39 108.98, 35.99 104.98 C38.58 100.99, 41.31 97.06, 44.15 93.23 C46.99 89.4, 49.97 85.65, 53.05 82 C56.14 78.36, 59.34 74.8, 62.66 71.35 C65.97 67.9, 69.4 64.54, 72.92 61.3 C76.45 58.06, 80.09 54.92, 83.82 51.9 C87.55 48.89, 91.38 45.98, 95.29 43.19 C99.21 40.41, 103.22 37.75, 107.3 35.21 C111.39 32.67, 115.57 30.26, 119.81 27.98 C124.05 25.7, 128.37 23.54, 132.75 21.53 C137.12 19.51, 141.57 17.63, 146.07 15.88 C150.57 14.14, 155.14 12.53, 159.74 11.07 C164.34 9.61, 169 8.28, 173.68 7.11 C178.37 5.93, 183.1 4.89, 187.86 4.01 C192.61 3.12, 197.4 2.38, 202.2 1.78 C207 1.19, 211.83 0.74, 216.66 0.45 C221.49 0.15, 226.34 0, 231.17 0 C236.01 0, 240.86 0.15, 245.69 0.45 C250.52 0.74, 255.35 1.19, 260.15 1.78 C264.95 2.38, 269.74 3.12, 274.49 4.01 C279.24 4.89, 283.98 5.93, 288.67 7.11 C293.35 8.28, 298.01 9.61, 302.61 11.07 C307.21 12.53, 311.78 14.14, 316.28 15.88 C320.77 17.63, 325.23 19.51, 329.6 21.53 C333.98 23.54, 338.3 25.7, 342.54 27.98 C346.78 30.26, 350.96 32.67, 355.04 35.21 C359.13 37.75, 363.14 40.41, 367.06 43.19 C370.97 45.98, 374.8 48.89, 378.53 51.9 C382.26 54.92, 385.9 58.06, 389.42 61.3 C392.95 64.54, 396.38 67.9, 399.69 71.35 C403.01 74.8, 406.21 78.36, 409.3 82 C412.38 85.65, 415.35 89.4, 418.2 93.23 C421.04 97.06, 423.77 100.99, 426.36 104.98 C428.95 108.98, 431.42 113.06, 433.75 117.21 C436.09 121.36, 438.29 125.59, 440.35 129.87 C442.41 134.16, 444.33 138.51, 446.11 142.91 C447.9 147.31, 449.54 151.78, 451.03 156.28 C452.53 160.78, 453.88 165.34, 455.09 169.93 C456.29 174.51, 457.35 179.14, 458.25 183.79 C459.16 188.44, 459.92 193.13, 460.53 197.82 C461.13 202.52, 461.59 207.25, 461.89 211.97 C462.2 216.69, 462.27 223.8, 462.35 226.17 C462.42 228.54, 462.42 223.8, 462.35 226.17" stroke="none" stroke-width="0" fill="#ffffff"></path><path d="M462.35 226.17 C462.35 230.91, 462.2 235.65, 461.89 240.37 C461.59 245.1, 461.13 249.82, 460.53 254.52 C459.92 259.22, 459.16 263.9, 458.25 268.55 C457.35 273.2, 456.29 277.83, 455.09 282.42 C453.88 287, 452.53 291.56, 451.03 296.06 C449.54 300.56, 447.9 305.03, 446.11 309.43 C444.33 313.83, 442.41 318.19, 440.35 322.47 C438.29 326.75, 436.09 330.98, 433.75 335.13 C431.42 339.28, 428.95 343.36, 426.36 347.36 C423.77 351.36, 421.04 355.28, 418.2 359.11 C415.35 362.94, 412.38 366.69, 409.3 370.34 C406.21 373.99, 403.01 377.55, 399.69 381 C396.38 384.45, 392.95 387.8, 389.42 391.04 C385.9 394.28, 382.26 397.42, 378.53 400.44 C374.8 403.46, 370.97 406.37, 367.06 409.15 C363.14 411.93, 359.13 414.6, 355.04 417.13 C350.96 419.67, 346.78 422.09, 342.54 424.37 C338.3 426.65, 333.98 428.8, 329.6 430.82 C325.23 432.83, 320.77 434.72, 316.28 436.46 C311.78 438.2, 307.21 439.81, 302.61 441.27 C298.01 442.74, 293.35 444.06, 288.67 445.24 C283.98 446.42, 279.24 447.45, 274.49 448.34 C269.74 449.22, 264.95 449.97, 260.15 450.56 C255.35 451.15, 250.52 451.6, 245.69 451.9 C240.86 452.19, 236.01 452.34, 231.17 452.34 C226.34 452.34, 221.49 452.19, 216.66 451.9 C211.83 451.6, 207 451.15, 202.2 450.56 C197.4 449.97, 192.61 449.22, 187.86 448.34 C183.1 447.45, 178.37 446.42, 173.68 445.24 C169 444.06, 164.34 442.74, 159.74 441.27 C155.14 439.81, 150.57 438.2, 146.07 436.46 C141.57 434.72, 137.12 432.83, 132.75 430.82 C128.37 428.8, 124.05 426.65, 119.81 424.37 C115.57 422.09, 111.39 419.67, 107.3 417.13 C103.22 414.6, 99.21 411.93, 95.29 409.15 C91.38 406.37, 87.55 403.46, 83.82 400.44 C80.09 397.42, 76.45 394.28, 72.92 391.04 C69.4 387.8, 65.97 384.45, 62.66 381 C59.34 377.55, 56.14 373.99, 53.05 370.34 C49.97 366.69, 46.99 362.94, 44.15 359.11 C41.31 355.28, 38.58 351.36, 35.99 347.36 C33.39 343.36, 30.93 339.28, 28.59 335.13 C26.26 330.98, 24.06 326.75, 22 322.47 C19.94 318.19, 18.02 313.83, 16.23 309.43 C14.45 305.03, 12.81 300.56, 11.31 296.06 C9.82 291.56, 8.47 287, 7.26 282.42 C6.06 277.83, 5 273.2, 4.09 268.55 C3.19 263.9, 2.43 259.22, 1.82 254.52 C1.22 249.82, 0.76 245.1, 0.46 240.37 C0.15 235.65, 0 230.91, 0 226.17 C0 221.44, 0.15 216.69, 0.46 211.97 C0.76 207.25, 1.22 202.52, 1.82 197.82 C2.43 193.13, 3.19 188.44, 4.09 183.79 C5 179.14, 6.06 174.51, 7.26 169.93 C8.47 165.34, 9.82 160.78, 11.31 156.28 C12.81 151.78, 14.45 147.31, 16.23 142.91 C18.02 138.51, 19.94 134.16, 22 129.87 C24.06 125.59, 26.26 121.36, 28.59 117.21 C30.93 113.06, 33.39 108.98, 35.99 104.98 C38.58 100.99, 41.31 97.06, 44.15 93.23 C46.99 89.4, 49.97 85.65, 53.05 82 C56.14 78.36, 59.34 74.8, 62.66 71.35 C65.97 67.9, 69.4 64.54, 72.92 61.3 C76.45 58.06, 80.09 54.92, 83.82 51.9 C87.55 48.89, 91.38 45.98, 95.29 43.19 C99.21 40.41, 103.22 37.75, 107.3 35.21 C111.39 32.67, 115.57 30.26, 119.81 27.98 C124.05 25.7, 128.37 23.54, 132.75 21.53 C137.12 19.51, 141.57 17.63, 146.07 15.88 C150.57 14.14, 155.14 12.53, 159.74 11.07 C164.34 9.61, 169 8.28, 173.68 7.11 C178.37 5.93, 183.1 4.89, 187.86 4.01 C192.61 3.12, 197.4 2.38, 202.2 1.78 C207 1.19, 211.83 0.74, 216.66 0.45 C221.49 0.15, 226.34 0, 231.17 0 C236.01 0, 240.86 0.15, 245.69 0.45 C250.52 0.74, 255.35 1.19, 260.15 1.78 C264.95 2.38, 269.74 3.12, 274.49 4.01 C279.24 4.89, 283.98 5.93, 288.67 7.11 C293.35 8.28, 298.01 9.61, 302.61 11.07 C307.21 12.53, 311.78 14.14, 316.28 15.88 C320.77 17.63, 325.23 19.51, 329.6 21.53 C333.98 23.54, 338.3 25.7, 342.54 27.98 C346.78 30.26, 350.96 32.67, 355.04 35.21 C359.13 37.75, 363.14 40.41, 367.06 43.19 C370.97 45.98, 374.8 48.89, 378.53 51.9 C382.26 54.92, 385.9 58.06, 389.42 61.3 C392.95 64.54, 396.38 67.9, 399.69 71.35 C403.01 74.8, 406.21 78.36, 409.3 82 C412.38 85.65, 415.35 89.4, 418.2 93.23 C421.04 97.06, 423.77 100.99, 426.36 104.98 C428.95 108.98, 431.42 113.06, 433.75 117.21 C436.09 121.36, 438.29 125.59, 440.35 129.87 C442.41 134.16, 444.33 138.51, 446.11 142.91 C447.9 147.31, 449.54 151.78, 451.03 156.28 C452.53 160.78, 453.88 165.34, 455.09 169.93 C456.29 174.51, 457.35 179.14, 458.25 183.79 C459.16 188.44, 459.92 193.13, 460.53 197.82 C461.13 202.52, 461.59 207.25, 461.89 211.97 C462.2 216.69, 462.27 223.8, 462.35 226.17 C462.42 228.54, 462.42 223.8, 462.35 226.17" stroke="#1e1e1e" stroke-width="4" fill="none"></path></g><g stroke-linecap="round"><g transform="translate(3562.7483037123484 704.5553274612143) rotate(0 157.2212113309497 -153.81891824800164)"><path d="M0 0 C52.41 -51.27, 262.04 -256.36, 314.44 -307.64 M0 0 C52.41 -51.27, 262.04 -256.36, 314.44 -307.64" stroke="#1e1e1e" stroke-width="4" fill="none"></path></g></g><mask></mask><g stroke-linecap="round" transform="translate(3230.662684053822 689.5169476103988) rotate(0 231.1743935459474 226.17174133726735)"><path d="M462.35 226.17 C462.35 230.91, 462.2 235.65, 461.89 240.37 C461.59 245.1, 461.13 249.82, 460.53 254.52 C459.92 259.22, 459.16 263.9, 458.25 268.55 C457.35 273.2, 456.29 277.83, 455.09 282.42 C453.88 287, 452.53 291.56, 451.03 296.06 C449.54 300.56, 447.9 305.03, 446.11 309.43 C444.33 313.83, 442.41 318.19, 440.35 322.47 C438.29 326.75, 436.09 330.98, 433.75 335.13 C431.42 339.28, 428.95 343.36, 426.36 347.36 C423.77 351.36, 421.04 355.28, 418.2 359.11 C415.35 362.94, 412.38 366.69, 409.3 370.34 C406.21 373.99, 403.01 377.55, 399.69 381 C396.38 384.45, 392.95 387.8, 389.42 391.04 C385.9 394.28, 382.26 397.42, 378.53 400.44 C374.8 403.46, 370.97 406.37, 367.06 409.15 C363.14 411.93, 359.13 414.6, 355.04 417.13 C350.96 419.67, 346.78 422.09, 342.54 424.37 C338.3 426.65, 333.98 428.8, 329.6 430.82 C325.23 432.83, 320.77 434.72, 316.28 436.46 C311.78 438.2, 307.21 439.81, 302.61 441.27 C298.01 442.74, 293.35 444.06, 288.67 445.24 C283.98 446.42, 279.24 447.45, 274.49 448.34 C269.74 449.22, 264.95 449.97, 260.15 450.56 C255.35 451.15, 250.52 451.6, 245.69 451.9 C240.86 452.19, 236.01 452.34, 231.17 452.34 C226.34 452.34, 221.49 452.19, 216.66 451.9 C211.83 451.6, 207 451.15, 202.2 450.56 C197.4 449.97, 192.61 449.22, 187.86 448.34 C183.1 447.45, 178.37 446.42, 173.68 445.24 C169 444.06, 164.34 442.74, 159.74 441.27 C155.14 439.81, 150.57 438.2, 146.07 436.46 C141.57 434.72, 137.12 432.83, 132.75 430.82 C128.37 428.8, 124.05 426.65, 119.81 424.37 C115.57 422.09, 111.39 419.67, 107.3 417.13 C103.22 414.6, 99.21 411.93, 95.29 409.15 C91.38 406.37, 87.55 403.46, 83.82 400.44 C80.09 397.42, 76.45 394.28, 72.92 391.04 C69.4 387.8, 65.97 384.45, 62.66 381 C59.34 377.55, 56.14 373.99, 53.05 370.34 C49.97 366.69, 46.99 362.94, 44.15 359.11 C41.31 355.28, 38.58 351.36, 35.99 347.36 C33.39 343.36, 30.93 339.28, 28.59 335.13 C26.26 330.98, 24.06 326.75, 22 322.47 C19.94 318.19, 18.02 313.83, 16.23 309.43 C14.45 305.03, 12.81 300.56, 11.31 296.06 C9.82 291.56, 8.47 287, 7.26 282.42 C6.06 277.83, 5 273.2, 4.09 268.55 C3.19 263.9, 2.43 259.22, 1.82 254.52 C1.22 249.82, 0.76 245.1, 0.46 240.37 C0.15 235.65, 0 230.91, 0 226.17 C0 221.44, 0.15 216.69, 0.46 211.97 C0.76 207.25, 1.22 202.52, 1.82 197.82 C2.43 193.13, 3.19 188.44, 4.09 183.79 C5 179.14, 6.06 174.51, 7.26 169.93 C8.47 165.34, 9.82 160.78, 11.31 156.28 C12.81 151.78, 14.45 147.31, 16.23 142.91 C18.02 138.51, 19.94 134.16, 22 129.87 C24.06 125.59, 26.26 121.36, 28.59 117.21 C30.93 113.06, 33.39 108.98, 35.99 104.98 C38.58 100.99, 41.31 97.06, 44.15 93.23 C46.99 89.4, 49.97 85.65, 53.05 82 C56.14 78.36, 59.34 74.8, 62.66 71.35 C65.97 67.9, 69.4 64.54, 72.92 61.3 C76.45 58.06, 80.09 54.92, 83.82 51.9 C87.55 48.89, 91.38 45.98, 95.29 43.19 C99.21 40.41, 103.22 37.75, 107.3 35.21 C111.39 32.67, 115.57 30.26, 119.81 27.98 C124.05 25.7, 128.37 23.54, 132.75 21.53 C137.12 19.51, 141.57 17.63, 146.07 15.88 C150.57 14.14, 155.14 12.53, 159.74 11.07 C164.34 9.61, 169 8.28, 173.68 7.11 C178.37 5.93, 183.1 4.89, 187.86 4.01 C192.61 3.12, 197.4 2.38, 202.2 1.78 C207 1.19, 211.83 0.74, 216.66 0.45 C221.49 0.15, 226.34 0, 231.17 0 C236.01 0, 240.86 0.15, 245.69 0.45 C250.52 0.74, 255.35 1.19, 260.15 1.78 C264.95 2.38, 269.74 3.12, 274.49 4.01 C279.24 4.89, 283.98 5.93, 288.67 7.11 C293.35 8.28, 298.01 9.61, 302.61 11.07 C307.21 12.53, 311.78 14.14, 316.28 15.88 C320.77 17.63, 325.23 19.51, 329.6 21.53 C333.98 23.54, 338.3 25.7, 342.54 27.98 C346.78 30.26, 350.96 32.67, 355.04 35.21 C359.13 37.75, 363.14 40.41, 367.06 43.19 C370.97 45.98, 374.8 48.89, 378.53 51.9 C382.26 54.92, 385.9 58.06, 389.42 61.3 C392.95 64.54, 396.38 67.9, 399.69 71.35 C403.01 74.8, 406.21 78.36, 409.3 82 C412.38 85.65, 415.35 89.4, 418.2 93.23 C421.04 97.06, 423.77 100.99, 426.36 104.98 C428.95 108.98, 431.42 113.06, 433.75 117.21 C436.09 121.36, 438.29 125.59, 440.35 129.87 C442.41 134.16, 444.33 138.51, 446.11 142.91 C447.9 147.31, 449.54 151.78, 451.03 156.28 C452.53 160.78, 453.88 165.34, 455.09 169.93 C456.29 174.51, 457.35 179.14, 458.25 183.79 C459.16 188.44, 459.92 193.13, 460.53 197.82 C461.13 202.52, 461.59 207.25, 461.89 211.97 C462.2 216.69, 462.27 223.8, 462.35 226.17 C462.42 228.54, 462.42 223.8, 462.35 226.17" stroke="none" stroke-width="0" fill="#ffffff"></path><path d="M462.35 226.17 C462.35 230.91, 462.2 235.65, 461.89 240.37 C461.59 245.1, 461.13 249.82, 460.53 254.52 C459.92 259.22, 459.16 263.9, 458.25 268.55 C457.35 273.2, 456.29 277.83, 455.09 282.42 C453.88 287, 452.53 291.56, 451.03 296.06 C449.54 300.56, 447.9 305.03, 446.11 309.43 C444.33 313.83, 442.41 318.19, 440.35 322.47 C438.29 326.75, 436.09 330.98, 433.75 335.13 C431.42 339.28, 428.95 343.36, 426.36 347.36 C423.77 351.36, 421.04 355.28, 418.2 359.11 C415.35 362.94, 412.38 366.69, 409.3 370.34 C406.21 373.99, 403.01 377.55, 399.69 381 C396.38 384.45, 392.95 387.8, 389.42 391.04 C385.9 394.28, 382.26 397.42, 378.53 400.44 C374.8 403.46, 370.97 406.37, 367.06 409.15 C363.14 411.93, 359.13 414.6, 355.04 417.13 C350.96 419.67, 346.78 422.09, 342.54 424.37 C338.3 426.65, 333.98 428.8, 329.6 430.82 C325.23 432.83, 320.77 434.72, 316.28 436.46 C311.78 438.2, 307.21 439.81, 302.61 441.27 C298.01 442.74, 293.35 444.06, 288.67 445.24 C283.98 446.42, 279.24 447.45, 274.49 448.34 C269.74 449.22, 264.95 449.97, 260.15 450.56 C255.35 451.15, 250.52 451.6, 245.69 451.9 C240.86 452.19, 236.01 452.34, 231.17 452.34 C226.34 452.34, 221.49 452.19, 216.66 451.9 C211.83 451.6, 207 451.15, 202.2 450.56 C197.4 449.97, 192.61 449.22, 187.86 448.34 C183.1 447.45, 178.37 446.42, 173.68 445.24 C169 444.06, 164.34 442.74, 159.74 441.27 C155.14 439.81, 150.57 438.2, 146.07 436.46 C141.57 434.72, 137.12 432.83, 132.75 430.82 C128.37 428.8, 124.05 426.65, 119.81 424.37 C115.57 422.09, 111.39 419.67, 107.3 417.13 C103.22 414.6, 99.21 411.93, 95.29 409.15 C91.38 406.37, 87.55 403.46, 83.82 400.44 C80.09 397.42, 76.45 394.28, 72.92 391.04 C69.4 387.8, 65.97 384.45, 62.66 381 C59.34 377.55, 56.14 373.99, 53.05 370.34 C49.97 366.69, 46.99 362.94, 44.15 359.11 C41.31 355.28, 38.58 351.36, 35.99 347.36 C33.39 343.36, 30.93 339.28, 28.59 335.13 C26.26 330.98, 24.06 326.75, 22 322.47 C19.94 318.19, 18.02 313.83, 16.23 309.43 C14.45 305.03, 12.81 300.56, 11.31 296.06 C9.82 291.56, 8.47 287, 7.26 282.42 C6.06 277.83, 5 273.2, 4.09 268.55 C3.19 263.9, 2.43 259.22, 1.82 254.52 C1.22 249.82, 0.76 245.1, 0.46 240.37 C0.15 235.65, 0 230.91, 0 226.17 C0 221.44, 0.15 216.69, 0.46 211.97 C0.76 207.25, 1.22 202.52, 1.82 197.82 C2.43 193.13, 3.19 188.44, 4.09 183.79 C5 179.14, 6.06 174.51, 7.26 169.93 C8.47 165.34, 9.82 160.78, 11.31 156.28 C12.81 151.78, 14.45 147.31, 16.23 142.91 C18.02 138.51, 19.94 134.16, 22 129.87 C24.06 125.59, 26.26 121.36, 28.59 117.21 C30.93 113.06, 33.39 108.98, 35.99 104.98 C38.58 100.99, 41.31 97.06, 44.15 93.23 C46.99 89.4, 49.97 85.65, 53.05 82 C56.14 78.36, 59.34 74.8, 62.66 71.35 C65.97 67.9, 69.4 64.54, 72.92 61.3 C76.45 58.06, 80.09 54.92, 83.82 51.9 C87.55 48.89, 91.38 45.98, 95.29 43.19 C99.21 40.41, 103.22 37.75, 107.3 35.21 C111.39 32.67, 115.57 30.26, 119.81 27.98 C124.05 25.7, 128.37 23.54, 132.75 21.53 C137.12 19.51, 141.57 17.63, 146.07 15.88 C150.57 14.14, 155.14 12.53, 159.74 11.07 C164.34 9.61, 169 8.28, 173.68 7.11 C178.37 5.93, 183.1 4.89, 187.86 4.01 C192.61 3.12, 197.4 2.38, 202.2 1.78 C207 1.19, 211.83 0.74, 216.66 0.45 C221.49 0.15, 226.34 0, 231.17 0 C236.01 0, 240.86 0.15, 245.69 0.45 C250.52 0.74, 255.35 1.19, 260.15 1.78 C264.95 2.38, 269.74 3.12, 274.49 4.01 C279.24 4.89, 283.98 5.93, 288.67 7.11 C293.35 8.28, 298.01 9.61, 302.61 11.07 C307.21 12.53, 311.78 14.14, 316.28 15.88 C320.77 17.63, 325.23 19.51, 329.6 21.53 C333.98 23.54, 338.3 25.7, 342.54 27.98 C346.78 30.26, 350.96 32.67, 355.04 35.21 C359.13 37.75, 363.14 40.41, 367.06 43.19 C370.97 45.98, 374.8 48.89, 378.53 51.9 C382.26 54.92, 385.9 58.06, 389.42 61.3 C392.95 64.54, 396.38 67.9, 399.69 71.35 C403.01 74.8, 406.21 78.36, 409.3 82 C412.38 85.65, 415.35 89.4, 418.2 93.23 C421.04 97.06, 423.77 100.99, 426.36 104.98 C428.95 108.98, 431.42 113.06, 433.75 117.21 C436.09 121.36, 438.29 125.59, 440.35 129.87 C442.41 134.16, 444.33 138.51, 446.11 142.91 C447.9 147.31, 449.54 151.78, 451.03 156.28 C452.53 160.78, 453.88 165.34, 455.09 169.93 C456.29 174.51, 457.35 179.14, 458.25 183.79 C459.16 188.44, 459.92 193.13, 460.53 197.82 C461.13 202.52, 461.59 207.25, 461.89 211.97 C462.2 216.69, 462.27 223.8, 462.35 226.17 C462.42 228.54, 462.42 223.8, 462.35 226.17" stroke="#1e1e1e" stroke-width="4" fill="none"></path></g><g stroke-linecap="round" transform="translate(4031.720996336869 1426.279848244787) rotate(0 231.1743935459474 226.17174133726735)"><path d="M462.35 226.17 C462.35 230.91, 462.2 235.65, 461.89 240.37 C461.59 245.1, 461.13 249.82, 460.53 254.52 C459.92 259.22, 459.16 263.9, 458.25 268.55 C457.35 273.2, 456.29 277.83, 455.09 282.42 C453.88 287, 452.53 291.56, 451.03 296.06 C449.54 300.56, 447.9 305.03, 446.11 309.43 C444.33 313.83, 442.41 318.19, 440.35 322.47 C438.29 326.75, 436.09 330.98, 433.75 335.13 C431.42 339.28, 428.95 343.36, 426.36 347.36 C423.77 351.36, 421.04 355.28, 418.2 359.11 C415.35 362.94, 412.38 366.69, 409.3 370.34 C406.21 373.99, 403.01 377.55, 399.69 381 C396.38 384.45, 392.95 387.8, 389.42 391.04 C385.9 394.28, 382.26 397.42, 378.53 400.44 C374.8 403.46, 370.97 406.37, 367.06 409.15 C363.14 411.93, 359.13 414.6, 355.04 417.13 C350.96 419.67, 346.78 422.09, 342.54 424.37 C338.3 426.65, 333.98 428.8, 329.6 430.82 C325.23 432.83, 320.77 434.72, 316.28 436.46 C311.78 438.2, 307.21 439.81, 302.61 441.27 C298.01 442.74, 293.35 444.06, 288.67 445.24 C283.98 446.42, 279.24 447.45, 274.49 448.34 C269.74 449.22, 264.95 449.97, 260.15 450.56 C255.35 451.15, 250.52 451.6, 245.69 451.9 C240.86 452.19, 236.01 452.34, 231.17 452.34 C226.34 452.34, 221.49 452.19, 216.66 451.9 C211.83 451.6, 207 451.15, 202.2 450.56 C197.4 449.97, 192.61 449.22, 187.86 448.34 C183.1 447.45, 178.37 446.42, 173.68 445.24 C169 444.06, 164.34 442.74, 159.74 441.27 C155.14 439.81, 150.57 438.2, 146.07 436.46 C141.57 434.72, 137.12 432.83, 132.75 430.82 C128.37 428.8, 124.05 426.65, 119.81 424.37 C115.57 422.09, 111.39 419.67, 107.3 417.13 C103.22 414.6, 99.21 411.93, 95.29 409.15 C91.38 406.37, 87.55 403.46, 83.82 400.44 C80.09 397.42, 76.45 394.28, 72.92 391.04 C69.4 387.8, 65.97 384.45, 62.66 381 C59.34 377.55, 56.14 373.99, 53.05 370.34 C49.97 366.69, 46.99 362.94, 44.15 359.11 C41.31 355.28, 38.58 351.36, 35.99 347.36 C33.39 343.36, 30.93 339.28, 28.59 335.13 C26.26 330.98, 24.06 326.75, 22 322.47 C19.94 318.19, 18.02 313.83, 16.23 309.43 C14.45 305.03, 12.81 300.56, 11.31 296.06 C9.82 291.56, 8.47 287, 7.26 282.42 C6.06 277.83, 5 273.2, 4.09 268.55 C3.19 263.9, 2.43 259.22, 1.82 254.52 C1.22 249.82, 0.76 245.1, 0.46 240.37 C0.15 235.65, 0 230.91, 0 226.17 C0 221.44, 0.15 216.69, 0.46 211.97 C0.76 207.25, 1.22 202.52, 1.82 197.82 C2.43 193.13, 3.19 188.44, 4.09 183.79 C5 179.14, 6.06 174.51, 7.26 169.93 C8.47 165.34, 9.82 160.78, 11.31 156.28 C12.81 151.78, 14.45 147.31, 16.23 142.91 C18.02 138.51, 19.94 134.16, 22 129.87 C24.06 125.59, 26.26 121.36, 28.59 117.21 C30.93 113.06, 33.39 108.98, 35.99 104.98 C38.58 100.99, 41.31 97.06, 44.15 93.23 C46.99 89.4, 49.97 85.65, 53.05 82 C56.14 78.36, 59.34 74.8, 62.66 71.35 C65.97 67.9, 69.4 64.54, 72.92 61.3 C76.45 58.06, 80.09 54.92, 83.82 51.9 C87.55 48.89, 91.38 45.98, 95.29 43.19 C99.21 40.41, 103.22 37.75, 107.3 35.21 C111.39 32.67, 115.57 30.26, 119.81 27.98 C124.05 25.7, 128.37 23.54, 132.75 21.53 C137.12 19.51, 141.57 17.63, 146.07 15.88 C150.57 14.14, 155.14 12.53, 159.74 11.07 C164.34 9.61, 169 8.28, 173.68 7.11 C178.37 5.93, 183.1 4.89, 187.86 4.01 C192.61 3.12, 197.4 2.38, 202.2 1.78 C207 1.19, 211.83 0.74, 216.66 0.45 C221.49 0.15, 226.34 0, 231.17 0 C236.01 0, 240.86 0.15, 245.69 0.45 C250.52 0.74, 255.35 1.19, 260.15 1.78 C264.95 2.38, 269.74 3.12, 274.49 4.01 C279.24 4.89, 283.98 5.93, 288.67 7.11 C293.35 8.28, 298.01 9.61, 302.61 11.07 C307.21 12.53, 311.78 14.14, 316.28 15.88 C320.77 17.63, 325.23 19.51, 329.6 21.53 C333.98 23.54, 338.3 25.7, 342.54 27.98 C346.78 30.26, 350.96 32.67, 355.04 35.21 C359.13 37.75, 363.14 40.41, 367.06 43.19 C370.97 45.98, 374.8 48.89, 378.53 51.9 C382.26 54.92, 385.9 58.06, 389.42 61.3 C392.95 64.54, 396.38 67.9, 399.69 71.35 C403.01 74.8, 406.21 78.36, 409.3 82 C412.38 85.65, 415.35 89.4, 418.2 93.23 C421.04 97.06, 423.77 100.99, 426.36 104.98 C428.95 108.98, 431.42 113.06, 433.75 117.21 C436.09 121.36, 438.29 125.59, 440.35 129.87 C442.41 134.16, 444.33 138.51, 446.11 142.91 C447.9 147.31, 449.54 151.78, 451.03 156.28 C452.53 160.78, 453.88 165.34, 455.09 169.93 C456.29 174.51, 457.35 179.14, 458.25 183.79 C459.16 188.44, 459.92 193.13, 460.53 197.82 C461.13 202.52, 461.59 207.25, 461.89 211.97 C462.2 216.69, 462.27 223.8, 462.35 226.17 C462.42 228.54, 462.42 223.8, 462.35 226.17" stroke="none" stroke-width="0" fill="#ffffff"></path><path d="M462.35 226.17 C462.35 230.91, 462.2 235.65, 461.89 240.37 C461.59 245.1, 461.13 249.82, 460.53 254.52 C459.92 259.22, 459.16 263.9, 458.25 268.55 C457.35 273.2, 456.29 277.83, 455.09 282.42 C453.88 287, 452.53 291.56, 451.03 296.06 C449.54 300.56, 447.9 305.03, 446.11 309.43 C444.33 313.83, 442.41 318.19, 440.35 322.47 C438.29 326.75, 436.09 330.98, 433.75 335.13 C431.42 339.28, 428.95 343.36, 426.36 347.36 C423.77 351.36, 421.04 355.28, 418.2 359.11 C415.35 362.94, 412.38 366.69, 409.3 370.34 C406.21 373.99, 403.01 377.55, 399.69 381 C396.38 384.45, 392.95 387.8, 389.42 391.04 C385.9 394.28, 382.26 397.42, 378.53 400.44 C374.8 403.46, 370.97 406.37, 367.06 409.15 C363.14 411.93, 359.13 414.6, 355.04 417.13 C350.96 419.67, 346.78 422.09, 342.54 424.37 C338.3 426.65, 333.98 428.8, 329.6 430.82 C325.23 432.83, 320.77 434.72, 316.28 436.46 C311.78 438.2, 307.21 439.81, 302.61 441.27 C298.01 442.74, 293.35 444.06, 288.67 445.24 C283.98 446.42, 279.24 447.45, 274.49 448.34 C269.74 449.22, 264.95 449.97, 260.15 450.56 C255.35 451.15, 250.52 451.6, 245.69 451.9 C240.86 452.19, 236.01 452.34, 231.17 452.34 C226.34 452.34, 221.49 452.19, 216.66 451.9 C211.83 451.6, 207 451.15, 202.2 450.56 C197.4 449.97, 192.61 449.22, 187.86 448.34 C183.1 447.45, 178.37 446.42, 173.68 445.24 C169 444.06, 164.34 442.74, 159.74 441.27 C155.14 439.81, 150.57 438.2, 146.07 436.46 C141.57 434.72, 137.12 432.83, 132.75 430.82 C128.37 428.8, 124.05 426.65, 119.81 424.37 C115.57 422.09, 111.39 419.67, 107.3 417.13 C103.22 414.6, 99.21 411.93, 95.29 409.15 C91.38 406.37, 87.55 403.46, 83.82 400.44 C80.09 397.42, 76.45 394.28, 72.92 391.04 C69.4 387.8, 65.97 384.45, 62.66 381 C59.34 377.55, 56.14 373.99, 53.05 370.34 C49.97 366.69, 46.99 362.94, 44.15 359.11 C41.31 355.28, 38.58 351.36, 35.99 347.36 C33.39 343.36, 30.93 339.28, 28.59 335.13 C26.26 330.98, 24.06 326.75, 22 322.47 C19.94 318.19, 18.02 313.83, 16.23 309.43 C14.45 305.03, 12.81 300.56, 11.31 296.06 C9.82 291.56, 8.47 287, 7.26 282.42 C6.06 277.83, 5 273.2, 4.09 268.55 C3.19 263.9, 2.43 259.22, 1.82 254.52 C1.22 249.82, 0.76 245.1, 0.46 240.37 C0.15 235.65, 0 230.91, 0 226.17 C0 221.44, 0.15 216.69, 0.46 211.97 C0.76 207.25, 1.22 202.52, 1.82 197.82 C2.43 193.13, 3.19 188.44, 4.09 183.79 C5 179.14, 6.06 174.51, 7.26 169.93 C8.47 165.34, 9.82 160.78, 11.31 156.28 C12.81 151.78, 14.45 147.31, 16.23 142.91 C18.02 138.51, 19.94 134.16, 22 129.87 C24.06 125.59, 26.26 121.36, 28.59 117.21 C30.93 113.06, 33.39 108.98, 35.99 104.98 C38.58 100.99, 41.31 97.06, 44.15 93.23 C46.99 89.4, 49.97 85.65, 53.05 82 C56.14 78.36, 59.34 74.8, 62.66 71.35 C65.97 67.9, 69.4 64.54, 72.92 61.3 C76.45 58.06, 80.09 54.92, 83.82 51.9 C87.55 48.89, 91.38 45.98, 95.29 43.19 C99.21 40.41, 103.22 37.75, 107.3 35.21 C111.39 32.67, 115.57 30.26, 119.81 27.98 C124.05 25.7, 128.37 23.54, 132.75 21.53 C137.12 19.51, 141.57 17.63, 146.07 15.88 C150.57 14.14, 155.14 12.53, 159.74 11.07 C164.34 9.61, 169 8.28, 173.68 7.11 C178.37 5.93, 183.1 4.89, 187.86 4.01 C192.61 3.12, 197.4 2.38, 202.2 1.78 C207 1.19, 211.83 0.74, 216.66 0.45 C221.49 0.15, 226.34 0, 231.17 0 C236.01 0, 240.86 0.15, 245.69 0.45 C250.52 0.74, 255.35 1.19, 260.15 1.78 C264.95 2.38, 269.74 3.12, 274.49 4.01 C279.24 4.89, 283.98 5.93, 288.67 7.11 C293.35 8.28, 298.01 9.61, 302.61 11.07 C307.21 12.53, 311.78 14.14, 316.28 15.88 C320.77 17.63, 325.23 19.51, 329.6 21.53 C333.98 23.54, 338.3 25.7, 342.54 27.98 C346.78 30.26, 350.96 32.67, 355.04 35.21 C359.13 37.75, 363.14 40.41, 367.06 43.19 C370.97 45.98, 374.8 48.89, 378.53 51.9 C382.26 54.92, 385.9 58.06, 389.42 61.3 C392.95 64.54, 396.38 67.9, 399.69 71.35 C403.01 74.8, 406.21 78.36, 409.3 82 C412.38 85.65, 415.35 89.4, 418.2 93.23 C421.04 97.06, 423.77 100.99, 426.36 104.98 C428.95 108.98, 431.42 113.06, 433.75 117.21 C436.09 121.36, 438.29 125.59, 440.35 129.87 C442.41 134.16, 444.33 138.51, 446.11 142.91 C447.9 147.31, 449.54 151.78, 451.03 156.28 C452.53 160.78, 453.88 165.34, 455.09 169.93 C456.29 174.51, 457.35 179.14, 458.25 183.79 C459.16 188.44, 459.92 193.13, 460.53 197.82 C461.13 202.52, 461.59 207.25, 461.89 211.97 C462.2 216.69, 462.27 223.8, 462.35 226.17 C462.42 228.54, 462.42 223.8, 462.35 226.17" stroke="#1e1e1e" stroke-width="4" fill="none"></path></g><g stroke-linecap="round"><g transform="translate(4372.395326150898 1451.7293636794363) rotate(0 99.01748645915586 -167.79195715886465)"><path d="M0 0 C33.01 -55.93, 165.03 -279.65, 198.03 -335.58 M0 0 C33.01 -55.93, 165.03 -279.65, 198.03 -335.58" stroke="#1e1e1e" stroke-width="4" fill="none"></path></g></g><mask></mask></svg>